<?xml version="1.0" standalone="no"?>
<!DOCTYPE svg PUBLIC "-//W3C//DTD SVG 1.1//EN" "http://www.w3.org/Graphics/SVG/1.1/DTD/svg11.dtd" >
<svg xmlns="http://www.w3.org/2000/svg">
<metadata></metadata>
<defs>
<font id="eurostile_extdblack" horiz-adv-x="1947" >
<font-face units-per-em="2048" ascent="1366" descent="-682" />
<missing-glyph horiz-adv-x="512" />
<glyph unicode="&#xfb01;" horiz-adv-x="1673" d="M96 717v239h191v31q0 143 30 219.5t105 122.5q52 34 130 47t226 13q61 0 193 -9v-231q-126 4 -137 4q-112 0 -153.5 -35.5t-41.5 -132.5v-29h352v-239h-352v-717h-352v717h-191zM1171 0v956h353v-956h-353zM1171 1110v256h353v-256h-353z" />
<glyph unicode="&#xfb02;" horiz-adv-x="1673" d="M96 717v239h191v31q0 143 30 219.5t105 122.5q52 34 130 47t226 13q61 0 193 -9v-231q-126 4 -137 4q-112 0 -153.5 -35.5t-41.5 -132.5v-29h352v-239h-352v-717h-352v717h-191zM1171 0v1366h353v-1366h-353z" />
<glyph unicode="&#xfb03;" horiz-adv-x="2560" d="M96 717v239h191v31q0 143 30 219.5t105 122.5q52 34 130 47t226 13q61 0 193 -9v-231q-126 4 -137 4q-112 0 -153.5 -35.5t-41.5 -132.5v-29h532v31q0 143 30.5 219.5t105.5 122.5q54 34 131.5 47t224.5 13q63 0 195 -9v-231q-126 4 -138 4q-114 0 -155 -35.5t-41 -132.5 v-29h354v-239h-354v-717h-353v717h-532v-717h-352v717h-191zM2058 0v956h352v-956h-352zM2058 1104v262h352v-262h-352z" />
<glyph unicode="&#xfb04;" horiz-adv-x="2560" d="M96 717v239h191v31q0 143 30 219.5t105 122.5q52 34 130 47t226 13q61 0 193 -9v-231q-126 4 -137 4q-112 0 -153.5 -35.5t-41.5 -132.5v-29h532v31q0 143 30.5 219.5t105.5 122.5q54 34 131.5 47t224.5 13q63 0 195 -9v-231q-126 4 -138 4q-114 0 -155 -35.5t-41 -132.5 v-29h354v-239h-354v-717h-353v717h-532v-717h-352v717h-191zM2058 0v1366h352v-1366h-352z" />
<glyph horiz-adv-x="2048" />
<glyph horiz-adv-x="2048" />
<glyph unicode="&#xd;" horiz-adv-x="2048" />
<glyph unicode=" "  horiz-adv-x="512" />
<glyph unicode="&#x09;" horiz-adv-x="512" />
<glyph unicode="&#xa0;" horiz-adv-x="512" />
<glyph unicode="!" horiz-adv-x="657" d="M127 0v375h397v-375h-397zM133 1366h397l-22 -807h-356z" />
<glyph unicode="&#x22;" horiz-adv-x="790" d="M68 1366h278l-45 -549h-188zM442 1366h279l-45 -549h-189z" />
<glyph unicode="#" horiz-adv-x="1460" d="M129 381l33 221h211l30 189h-208l32 221h209l56 354h249l-59 -354h195l57 354h252l-58 -354h207l-32 -221h-207l-31 -189h211l-33 -221h-211l-61 -381h-258l65 381h-192l-62 -381h-245l61 381h-211zM623 602h190l29 189h-191z" />
<glyph unicode="$" d="M68 383q0 4 4 90h340l-2 -41q0 -105 73 -127q72 -23 396 -20v290l-267 5q-88 0 -215 10q-158 13 -231.5 104.5t-73.5 272.5q0 182 74 277t229 110q62 7 107.5 8.5t232.5 1.5h144v111h178v-111q173 -1 264 -2.5t169.5 -5.5t119 -14.5t71.5 -23.5t68 -38 q54 -43 73.5 -110.5t18.5 -206.5h-346q0 49 -20 74.5t-68 37.5q-36 10 -186 10h-164v-243l286 -6q178 -4 265.5 -22t158.5 -64q58 -38 83.5 -112t25.5 -206q0 -177 -54 -266t-186 -129q-69 -21 -159 -26.5t-420 -10.5v-143h-178v143q-271 0 -408.5 11t-210.5 40 q-101 38 -146.5 117.5t-45.5 214.5zM449 975q0 -73 37.5 -98t150.5 -27l242 -2v239h-68q-57 -2 -143 -2q-149 3 -181 -18q-38 -21 -38 -92zM1057 283q61 2 248 2q137 0 180 28t43 117q0 86 -60 115q-34 15 -61.5 18t-161.5 4l-188 2v-286z" />
<glyph unicode="%" horiz-adv-x="2224" d="M76 1034q0 135 18.5 196.5t69.5 92.5q49 29 119 38t249 9q163 0 226.5 -9t109.5 -38q49 -31 67.5 -94t18.5 -199q0 -143 -15.5 -204.5t-59.5 -92.5q-46 -34 -108 -43.5t-232 -9.5q-217 0 -270 6t-103 35q-56 31 -73 90.5t-17 222.5zM291 1020q0 -44 1 -67t10.5 -45 t20.5 -30t40.5 -15t61 -8t91.5 -1q57 0 88.5 1t60 8t40.5 15.5t21.5 29.5t11 44.5t1.5 65.5q0 82 -5.5 112.5t-24.5 45.5q-21 17 -58 21.5t-147 4.5q-56 0 -86 -1t-58 -8.5t-38.5 -16.5t-19.5 -33t-10 -49.5t-1 -73.5zM451 0l1134 1366h189l-1137 -1366h-186zM1268 350 q0 137 18.5 197.5t69.5 91.5q49 29 119.5 38t250.5 9q163 0 226.5 -9t109.5 -38q49 -31 67.5 -94t18.5 -199q0 -143 -15.5 -204.5t-59.5 -92.5q-46 -34 -108 -43.5t-234 -9.5q-217 0 -270 6t-103 35q-56 31 -73 90.5t-17 222.5zM1483 336q0 -44 1.5 -67t10.5 -45t20.5 -30 t41 -15t61.5 -8t92 -1q57 0 88.5 1t60 8t40.5 15.5t21.5 29.5t11 44.5t1.5 65.5q0 82 -5.5 112.5t-24.5 45.5q-21 17 -58 21.5t-147 4.5q-57 0 -87 -1t-58.5 -8.5t-39 -16.5t-19.5 -33t-10 -49.5t-1 -73.5z" />
<glyph unicode="&#x26;" horiz-adv-x="2091" d="M80 426q0 134 25.5 202t89.5 105q33 20 77.5 28t137.5 11q-98 37 -135 96.5t-37 182.5q0 127 37 194.5t122 93.5q66 20 172 26.5t379 6.5q270 0 402.5 -20.5t187.5 -71.5q58 -52 66 -223q2 -37 2 -121h-355v45q0 51 -26.5 77t-83.5 29q-148 9 -219 9q-131 0 -196 -7 t-91.5 -25t-26.5 -54q0 -32 20 -55t68 -48l47 -22l641 -328q7 54 7 92q0 26 -7 84h347q-3 -228 -21 -336l305 -159l-125 -244l-284 141q-65 -61 -134.5 -88.5t-186 -38t-351.5 -10.5q-507 0 -647 51q-121 44 -164 122t-43 255zM449 457q0 -97 41 -129t174 -39q148 -8 409 -8 q116 0 149.5 3t69.5 15l-682 338q-36 4 -47 4q-58 0 -86 -45t-28 -139z" />
<glyph unicode="'" horiz-adv-x="524" d="M123 1366h278l-45 -549h-188z" />
<glyph unicode="(" horiz-adv-x="897" d="M156 479q0 463 4 504q6 125 31.5 196.5t82.5 125.5q60 56 136 72t280 16h125v-306q-64 3 -90 3q-74 0 -114 -16t-60 -54q-15 -28 -18 -104t-3 -455v-201q3 -145 0 -186q0 -120 40 -162.5t155 -42.5q49 0 90 2v-305h-125q-140 0 -208.5 7t-116.5 26q-74 31 -125 94.5 t-66 146.5q-13 73 -15.5 157t-2.5 482z" />
<glyph unicode=")" horiz-adv-x="897" d="M82 -129q43 -2 90 -2q74 0 114 16t60 54q15 28 18 104t3 455v200q-3 146 0 187q0 120 -40 162.5t-155 42.5q-28 0 -90 -3v306h125q153 0 215.5 -6.5t109.5 -26.5q74 -29 125 -94t66 -148q13 -73 15.5 -157t2.5 -482q0 -463 -4 -504q-6 -125 -31.5 -195.5t-82.5 -123.5 q-60 -55 -141 -72.5t-275 -17.5h-125v305z" />
<glyph unicode="*" horiz-adv-x="1366" d="M209 946l63 197l310 -101v324h204v-324l310 101l63 -197l-309 -100l190 -262l-166 -121l-190 262l-190 -262l-166 121l190 262z" />
<glyph unicode="+" horiz-adv-x="1884" d="M301 580v245h518v478h246v-478h520v-245h-520v-478h-246v478h-518z" />
<glyph unicode="," horiz-adv-x="653" d="M70 -152l47 -2q60 0 94.5 30.5t34.5 84.5q0 25 -2 39h-123v379h411v-363q0 -144 -10 -193t-49 -99q-38 -49 -102.5 -70t-180.5 -21h-120v215z" />
<glyph unicode="-" horiz-adv-x="708" d="M0 319v349h709v-349h-709z" />
<glyph unicode="." horiz-adv-x="706" d="M150 0v381h407v-381h-407z" />
<glyph unicode="/" horiz-adv-x="1554" d="M-276 -416l1472 1782h289l-1465 -1782h-296z" />
<glyph unicode="0" d="M125 686q0 263 34.5 393.5t121.5 194.5q75 57 233 79.5t473 22.5q325 0 472 -22.5t222 -83.5q80 -65 111 -191.5t31 -388.5q0 -269 -26.5 -393.5t-96.5 -190.5q-74 -69 -214.5 -92.5t-481.5 -23.5q-305 0 -443 9t-208 32.5t-120 79.5q-63 70 -85.5 190.5t-22.5 384.5z M516 670q0 -56 1 -92t6 -74t10.5 -59.5t21 -45t30 -34.5t45 -23t59 -16t78.5 -8t97 -4.5t121 -0.5q170 0 257.5 14t125.5 46q40 34 52 95t12 230q0 72 -1 114t-10 85.5t-19 65t-37.5 43t-55 29.5t-82.5 15t-109 8t-145 1q-89 0 -143 -1t-108.5 -9t-82 -16.5t-55 -31.5 t-37.5 -47t-19 -70t-10.5 -92t-1.5 -122z" />
<glyph unicode="1" d="M276 977l582 389h496v-1366h-398v1049l-495 -347z" />
<glyph unicode="2" d="M174 0v397q0 109 36 179t112 108q49 25 112.5 36.5t200.5 22.5l520 39q123 10 166 27q68 24 68 131q0 103 -56 129q-33 15 -91.5 19t-266.5 4q-172 0 -237.5 -5t-102.5 -20q-46 -17 -65 -54t-19 -108v-37h-377v113q0 85 4 115.5t19 74.5q56 155 282 179q176 20 514 20 q298 0 430.5 -13t204.5 -50q78 -40 112 -124t34 -241q0 -163 -34 -246.5t-120 -130.5q-50 -28 -124 -43t-204 -22l-516 -35q-103 -9 -130.5 -13.5t-47.5 -15.5q-49 -34 -49 -108q0 -34 2 -52h1221v-276h-1598z" />
<glyph unicode="3" d="M154 395q0 16 4 86h377q0 -33 0.5 -54t5.5 -44t9.5 -35.5t18.5 -26t27 -20t41.5 -13t54 -9t71.5 -4.5t88.5 -2.5t111.5 -0.5q288 0 358 17q78 21 78 123q0 94 -64 125q-41 20 -196 20h-326v258h307q145 0 193 23q55 30 55 112q0 89 -70 117q-32 12 -59 15.5t-109 4.5 q-8 1 -48.5 2.5t-76.5 3t-38 1.5q-271 0 -338 -23q-78 -28 -78 -110q0 -14 4 -54h-385q6 176 24 242t72 113q100 86 346 100q110 10 387 10q170 0 281.5 -5.5t202 -22t140.5 -41t83 -69.5t44 -100.5t11 -140.5q0 -115 -29 -175t-98 -91q-51 -22 -192 -41q119 -15 168.5 -27 t85.5 -34q94 -58 94 -260q0 -145 -55 -228.5t-170 -111.5q-69 -18 -191 -24.5t-395 -6.5q-349 0 -475 11t-197 46q-153 83 -153 344z" />
<glyph unicode="4" d="M137 260v483l981 623h484v-819h221v-279h-221v-268h-379v260h-1086zM418 547h805v506z" />
<glyph unicode="5" d="M164 369q0 27 2 45h379q-2 -6 -2 -15q0 -53 24 -77q23 -23 56.5 -33t101.5 -13q20 -1 141 -4.5t150 -3.5q279 0 336 35q53 36 53 166q0 108 -50 144t-200 34q-75 0 -141 2t-172 2q-164 0 -216 -17.5t-65 -78.5h-344l12 811h1500v-276h-1168v-308q22 46 47.5 71t81.5 41.5 t134.5 21t219.5 4.5q253 0 380 -11t190 -39q97 -43 138.5 -128t41.5 -240q0 -161 -32.5 -260t-104.5 -154q-56 -42 -126.5 -60.5t-205.5 -25.5q-140 -10 -344 -10q-508 0 -655 69q-162 74 -162 308z" />
<glyph unicode="6" d="M174 743q0 249 27.5 357.5t105.5 165.5q83 58 230.5 83t406.5 25q273 0 471 -18q133 -14 203.5 -51.5t100 -112t28.5 -209.5h-377q-3 31 -13.5 48.5t-32.5 31t-71.5 19t-114.5 8t-177 2.5q-144 0 -220.5 -11t-115.5 -39q-37 -23 -51.5 -83t-14.5 -191v-66q34 66 78 97.5 t125 46.5q59 12 285 12q429 0 536 -39q106 -37 147.5 -118t41.5 -252q0 -164 -32 -249.5t-110 -131.5q-56 -31 -110.5 -44t-167.5 -20q-220 -10 -369 -10q-345 0 -514 31q-112 22 -187 94.5t-92 175.5q-16 112 -16 448zM559 430q0 -82 45 -121q26 -20 75 -27.5t161 -7.5 q264 0 344.5 3.5t122.5 17.5q46 14 66 45.5t20 89.5q0 106 -68 133q-34 14 -93 17.5t-237 3.5q-198 0 -268 -5t-106 -22q-62 -27 -62 -127z" />
<glyph unicode="7" d="M162 1038v328h1624v-309l-903 -1057h-488l893 1038h-1126z" />
<glyph unicode="8" d="M168 344q0 123 28 189.5t96.5 102.5t205.5 58q-115 10 -168 28.5t-88 59.5q-62 71 -62 224q0 124 30 194.5t99 108.5q83 48 285 59q80 4 381 4q320 0 430.5 -8t191.5 -39q88 -32 128 -106t40 -203q0 -107 -22.5 -168.5t-73.5 -93.5q-35 -23 -82 -34.5t-157 -25.5 q118 -12 168.5 -25.5t87.5 -43.5q92 -72 92 -273q0 -137 -45.5 -214.5t-143.5 -106.5q-71 -22 -185.5 -29.5t-375.5 -7.5q-444 0 -526 6q-88 5 -159 34.5t-112 78.5q-63 74 -63 231zM551 420q0 -36 4 -57.5t22 -40t43.5 -27t81 -14.5t120.5 -7.5t175 -1.5q95 0 152.5 1.5 t106.5 7.5t72.5 14.5t40 26t20.5 38.5t4 56q0 94 -54 123q-38 20 -92 24t-262 4q-196 0 -262 -3t-96 -13q-76 -21 -76 -131zM559 967q0 -110 115 -131q53 -9 471 -9q135 0 187 31t52 109q0 55 -28 85.5t-88 41.5q-17 3 -117 6.5t-170 3.5q-231 0 -303 -10q-64 -14 -91.5 -43 t-27.5 -84z" />
<glyph unicode="9" d="M166 324q0 36 2 59h383q5 -52 24 -68q29 -25 155 -30l226 -2q219 0 290 10t108 45q19 19 26.5 52.5t8.5 115.5q2 43 4 139q-17 -27 -32 -44.5t-35 -32.5t-50 -23.5t-66 -15.5t-94.5 -9.5t-123.5 -4t-165 -1.5q-212 0 -312.5 14t-172.5 52q-82 43 -118 123.5t-36 220.5 q0 166 39 256.5t127 130.5q74 36 200.5 49.5t385.5 13.5q370 0 509.5 -22.5t221.5 -96.5q68 -62 90.5 -167.5t22.5 -360.5q0 -295 -22.5 -416.5t-88.5 -189.5q-56 -57 -132 -82.5t-220 -34.5q-33 -3 -200.5 -7.5t-217.5 -4.5q-457 0 -577 53q-83 35 -121.5 102.5 t-38.5 176.5zM578 934q0 -94 47 -121q31 -19 83 -23t275 -4q178 0 250 4.5t104 18.5q26 12 42 47t16 82q0 67 -28.5 100.5t-94.5 44.5q-50 11 -324 11q-156 0 -211.5 -5t-93.5 -20q-65 -30 -65 -135z" />
<glyph unicode=":" horiz-adv-x="706" d="M150 0v381h407v-381h-407zM150 575v381h407v-381h-407z" />
<glyph unicode=";" horiz-adv-x="655" d="M70 -152l47 -2q60 0 94.5 30.5t34.5 84.5q0 25 -2 39h-123v379h411v-363q0 -144 -10 -193t-49 -99q-38 -49 -102.5 -70t-180.5 -21h-120v215zM127 575v381h408v-381h-408z" />
<glyph unicode="&#x3c;" horiz-adv-x="1024" d="M68 592v207l886 446v-244l-626 -307l626 -305v-244z" />
<glyph unicode="=" horiz-adv-x="1884" d="M301 375v246h1284v-246h-1284zM301 784v246h1284v-246h-1284z" />
<glyph unicode="&#x3e;" horiz-adv-x="1951" d="M532 145v244l627 305l-627 307v242l887 -444v-207z" />
<glyph unicode="?" horiz-adv-x="1609" d="M78 891q0 169 18.5 243t75.5 128q45 44 108 64.5t181 31.5q156 12 338 12q141 0 237.5 -6.5t173.5 -24t122 -44t75 -72t40.5 -102.5t10.5 -140q0 -148 -30 -224t-103 -114q-42 -21 -95 -32.5t-249 -43.5q-72 -12 -95.5 -30t-23.5 -62h-346q-1 76 2 121t17.5 85.5t36 61.5 t67.5 40.5t100 30.5t146 24q141 22 184 50t43 99q0 93 -108 111q-68 14 -259 14q-84 0 -136.5 -4.5t-91 -14.5t-57 -31.5t-26.5 -51t-8 -76.5q0 -27 2 -43h-350zM489 0v342h398v-342h-398z" />
<glyph unicode="@" horiz-adv-x="2263" d="M123 674q0 373 16 495q15 104 75 157t175 63q120 10 823 10q334 0 484.5 -6t218.5 -23q91 -22 138 -65.5t67 -126.5q20 -85 20 -430q0 -195 -11.5 -267t-51.5 -114q-21 -24 -45.5 -35t-71.5 -17q-86 -14 -203 -14q-145 0 -231 21q-46 11 -69 50t-27 120 q-17 -57 -43 -88.5t-78 -57.5q-76 -39 -297 -39q-214 0 -324 76q-47 34 -65.5 96.5t-18.5 192.5q0 124 15 193t50.5 106.5t102.5 56.5q102 29 336 29q130 0 213 -33q41 -15 64 -36t45 -64v125h227v-431q0 -73 26 -103t91 -30q30 0 48 3.5t33 19t22 37t12 68t6 99.5t1 144 q0 128 -5 188t-19 88.5t-45 41.5q-47 19 -181 25.5t-458 6.5h-66q-466 0 -555.5 -3.5t-126.5 -24.5q-31 -17 -43.5 -58t-15.5 -135q-12 -282 -12 -369q0 -105 6.5 -210t15.5 -138q14 -54 38 -73q41 -32 198 -39q113 -6 497 -6l504 2h98q161 -3 179 77l233 -43 q-16 -53 -31.5 -86.5t-42.5 -60.5t-58 -41t-86 -23t-118 -11t-162 -1q-260 0 -479 -2q-188 -2 -418 -2q-160 0 -256.5 5.5t-164 22t-100.5 42t-54 69.5q-31 60 -38 154t-7 422zM850 690q0 -94 12.5 -130t52.5 -58q52 -27 179 -27q78 0 127 2.5t89 11.5t60.5 22.5t34.5 39.5 t18 57.5t4 81.5q0 70 -10 109t-43 64t-84.5 32.5t-144.5 7.5q-68 0 -111 -2.5t-78.5 -12t-54 -23t-31.5 -39t-16.5 -56.5t-3.5 -80z" />
<glyph unicode="A" horiz-adv-x="2099" d="M14 0l768 1366h557l748 -1366h-455l-135 244h-881l-131 -244h-471zM766 528h586l-295 545z" />
<glyph unicode="B" horiz-adv-x="2086" d="M178 0v1366h1233q119 0 189.5 -11t125.5 -38q82 -41 119 -115t37 -194q0 -182 -88 -252q-31 -25 -69 -38.5t-111 -25.5q90 -7 139.5 -20.5t87.5 -38.5q96 -68 96 -258q0 -242 -157 -328q-90 -47 -312 -47h-1290zM584 303h743q93 0 127 10q31 11 48.5 40.5t17.5 72.5 q0 92 -70 117q-31 10 -133 10h-733v-250zM584 821h698q97 0 135 17q53 29 53 102q0 41 -18.5 71t-52.5 42q-34 10 -127 10h-688v-242z" />
<glyph unicode="C" horiz-adv-x="2037" d="M150 715q0 270 38.5 390t145.5 181q92 54 220.5 72t416.5 18q383 0 516 -12t221 -55q162 -80 162 -377v-45h-397q-2 31 -4.5 50.5t-11.5 38t-19 29t-33.5 20t-48.5 13t-70.5 7t-92 4t-120.5 0.5q-252 0 -332.5 -10t-119.5 -44q-37 -34 -48.5 -95t-11.5 -226 q0 -68 1.5 -110t10 -83t18.5 -63t35.5 -42.5t52.5 -29t77.5 -15.5t101 -8t133.5 -1q239 0 304.5 4t107.5 22q45 19 63.5 56t18.5 110h403q-2 -153 -9 -218t-28 -110q-40 -88 -128.5 -132t-247.5 -54q-105 -10 -521 -10q-295 0 -421 18t-209 72q-101 64 -137.5 197t-36.5 438 z" />
<glyph unicode="D" horiz-adv-x="2156" d="M178 0v1366h1180q217 0 332.5 -28.5t185.5 -98.5q57 -55 83.5 -129t37.5 -205q8 -126 8 -223q0 -212 -20 -342q-17 -123 -95.5 -210.5t-191.5 -109.5q-97 -20 -285 -20h-1235zM594 326h696q87 0 110.5 2t59.5 14q75 23 101 92t26 246q0 75 -4.5 125.5t-17.5 91.5 t-32.5 64t-53.5 38.5t-76 21t-105 5.5h-704v-700z" />
<glyph unicode="E" horiz-adv-x="1835" d="M178 0v1366h1514v-309h-1104v-236h1040v-270h-1040v-242h1118v-309h-1528z" />
<glyph unicode="F" horiz-adv-x="1730" d="M178 0v1366h1450v-309h-1036v-273h983v-309h-983v-475h-414z" />
<glyph unicode="G" horiz-adv-x="2078" d="M150 666q0 220 14.5 326.5t54.5 178.5q46 80 124.5 124t209.5 63q141 18 520 18q277 0 395 -5.5t183 -20.5q108 -27 167 -77t84 -137q25 -84 25 -222v-11h-407q-3 83 -42 117.5t-130 34.5h-105l-147 2q-311 0 -373 -8q-71 -11 -104.5 -45.5t-40.5 -104.5 q-11 -68 -11 -250q0 -168 27.5 -234t107.5 -91q46 -13 106.5 -16t315.5 -3q163 0 196.5 1t70.5 7q120 21 129 121q2 16 2 60v22h-527v254h932v-188q0 -167 -7.5 -245t-27.5 -134q-35 -95 -110.5 -144t-204.5 -63q-64 -6 -571 -6q-406 0 -521 24q-113 25 -181 75t-103 134 q-30 68 -40.5 159t-10.5 284z" />
<glyph unicode="H" horiz-adv-x="2131" d="M178 0v1366h416v-506h946v506h416v-1366h-416v522h-946v-522h-416z" />
<glyph unicode="I" horiz-adv-x="772" d="M178 0v1366h416v-1366h-416z" />
<glyph unicode="J" horiz-adv-x="1652" d="M68 410l2 88v82h395v-43q0 -86 10.5 -126t38.5 -59q61 -37 260 -37q202 0 252 56q22 25 26.5 56t6.5 153v786h416v-704q-2 -252 -13.5 -330.5t-58.5 -153.5q-48 -77 -127.5 -120t-204.5 -58q-74 -10 -346 -10q-221 0 -310.5 11t-160.5 46q-98 47 -142 132.5t-44 230.5z " />
<glyph unicode="K" horiz-adv-x="2050" d="M178 0v1366h416v-510h217l565 510h572l-785 -676l860 -690h-604l-616 524h-209v-524h-416z" />
<glyph unicode="L" horiz-adv-x="1574" d="M178 0v1366h416v-1028h940v-338h-1356z" />
<glyph unicode="M" horiz-adv-x="2664" d="M178 0v1366h660l497 -907l496 907h655v-1366h-405l20 1055l-606 -1055h-332l-596 1055l13 -1055h-402z" />
<glyph unicode="N" horiz-adv-x="2226" d="M178 0v1366h662l827 -1038l-10 1038h393v-1366h-668l-815 1028l11 -1028h-400z" />
<glyph unicode="O" horiz-adv-x="2164" d="M150 692q0 176 5 243.5t23 135.5q29 109 93 171.5t180 96.5q86 25 207 33t393 8q295 0 416.5 -4t193.5 -16q158 -29 239 -116t103 -251q12 -82 12 -331t-32 -368.5t-119 -191.5q-62 -53 -154.5 -78.5t-241.5 -31.5q-111 -6 -389 -6q-460 0 -573 22q-113 20 -182.5 64.5 t-108.5 120.5q-39 74 -52 173.5t-13 325.5zM569 690q0 -150 14.5 -217t53.5 -100q41 -34 121.5 -44t314.5 -10q186 0 276 6t134.5 22t68.5 50q29 37 39.5 100.5t10.5 200.5v115t-10.5 84t-17.5 63.5t-41 40t-59.5 28t-95 11.5t-125 7h-170.5q-226 0 -314 -10t-128 -40 q-42 -33 -57 -96.5t-15 -210.5z" />
<glyph unicode="P" horiz-adv-x="1943" d="M178 0v1366h1045q198 0 275.5 -9.5t141.5 -41.5q103 -51 146 -154t43 -297q0 -195 -37.5 -303.5t-122.5 -161.5q-60 -37 -145 -50t-264 -13h-668v-336h-414zM592 668h604q128 0 173.5 34.5t45.5 131.5q0 123 -42.5 161.5t-176.5 38.5h-604v-366z" />
<glyph unicode="Q" horiz-adv-x="2177" d="M150 655q0 199 5 274t25 144q29 109 93.5 171.5t181.5 96.5q76 22 186 30.5t305 8.5q392 0 538 -6.5t228 -27.5q113 -28 178.5 -92.5t96.5 -178.5q17 -54 22.5 -132.5t5.5 -244.5q0 -214 -18 -327l178 -103l-145 -280l-162 118q-80 -69 -226 -98q-62 -13 -179.5 -17.5 t-387.5 -4.5q-448 0 -571 22q-113 22 -182 66.5t-109 120.5q-37 74 -50 168.5t-13 291.5zM569 684q0 -157 18 -226.5t66 -95.5q55 -29 141.5 -36t383.5 -7q220 0 309 17l-453 252l164 276l401 -260q3 77 3 109v90t-6.5 70.5t-9 57.5t-23.5 41.5t-33 32t-53 19.5t-69 13.5 t-96.5 5.5t-118.5 4h-151q-77 0 -123.5 -0.5t-99 -4.5t-80 -7.5t-59 -15.5t-45.5 -22.5t-29.5 -34.5t-20.5 -45.5t-10 -61.5t-5.5 -76t-0.5 -95z" />
<glyph unicode="R" horiz-adv-x="2062" d="M178 0v1366h1178q148 0 228 -10.5t140 -38.5q89 -41 131.5 -137t42.5 -256q0 -218 -86 -310q-35 -37 -95 -56.5t-199 -39.5q62 -4 67 -4q107 -6 157 -22t81 -52q31 -35 44 -86.5t13 -138.5v-215h-422v170q0 110 -51 147q-24 17 -58 22t-120 5h-637v-344h-414zM592 678 h649q79 0 123 5.5t72 24t36.5 48t8.5 82.5q0 66 -7.5 98.5t-27.5 54.5q-23 24 -59.5 31.5t-131.5 7.5h-663v-352z" />
<glyph unicode="S" horiz-adv-x="1998" d="M150 940q0 185 59 273.5t207 123.5q149 39 569 39q358 0 486 -14t202 -62q71 -47 98 -123t27 -229h-405q0 31 -4 51t-17.5 36.5t-32.5 25t-57 14t-82.5 7t-116.5 1.5q-244 0 -376 -8q-83 -6 -115.5 -31t-32.5 -83q0 -88 88 -109q33 -8 168 -10h387q98 0 291 -11 q195 -9 278.5 -102t83.5 -299q0 -189 -62 -281t-212 -124q-155 -35 -602 -35q-356 0 -482 12.5t-216 58.5q-127 62 -127 308q0 38 2 67h407q3 -70 15 -95.5t49 -39.5q52 -20 278 -20q129 0 207.5 1.5t145 6.5t98.5 12.5t54.5 23.5t28 34.5t5.5 48.5q0 41 -19 70t-51 40 q-35 11 -69 13.5t-191 3.5h-377q-189 0 -283.5 12.5t-160.5 46.5q-73 38 -108 122t-35 224z" />
<glyph unicode="T" horiz-adv-x="1740" d="M55 1028v338h1633v-338h-609v-1028h-415v1028h-609z" />
<glyph unicode="U" horiz-adv-x="2093" d="M170 631v735h416v-594q0 -223 3 -266t23 -88q26 -59 107.5 -81t271.5 -22q236 0 323.5 9t125.5 38q60 45 63 195q2 31 2 182v627h416v-717q0 -186 -8 -266t-33 -139q-86 -202 -356 -242q-80 -14 -486 -14q-257 0 -376.5 6.5t-184.5 25.5q-221 60 -276 252 q-31 105 -31 359z" />
<glyph unicode="V" horiz-adv-x="2066" d="M27 1366h458l539 -1032l551 1032h463l-756 -1366h-526z" />
<glyph unicode="W" horiz-adv-x="2957" d="M55 1366h422l397 -1040l353 1040h502l342 -1040l409 1040h422l-565 -1366h-557l-303 983l-318 -983h-553z" />
<glyph unicode="X" horiz-adv-x="2156" d="M55 0l680 682l-645 684h549l438 -489l447 489h534l-643 -678l686 -688h-565l-459 492l-461 -492h-561z" />
<glyph unicode="Y" horiz-adv-x="2023" d="M27 1366h530l461 -565l457 565h520l-770 -893v-473h-418v473z" />
<glyph unicode="Z" horiz-adv-x="1888" d="M117 0v313l1032 744h-1006v309h1614v-313l-1044 -744h1061v-309h-1657z" />
<glyph unicode="[" horiz-adv-x="868" d="M178 -430v1808h664v-272h-314v-1264h314v-272h-664z" />
<glyph unicode="\" horiz-adv-x="1554" d="M68 1366h288l1473 -1782h-297z" />
<glyph unicode="]" horiz-adv-x="868" d="M27 -158h313v1264h-313v272h663v-1808h-663v272z" />
<glyph unicode="^" horiz-adv-x="1024" d="M16 696l334 676h324l334 -676h-258l-238 482l-238 -482h-258z" />
<glyph unicode="_" horiz-adv-x="1024" d="M0 -100h1024v-222h-1024v222z" />
<glyph unicode="`" horiz-adv-x="1024" d="M188 1253l80 217l459 -243l-51 -137z" />
<glyph unicode="a" horiz-adv-x="1552" d="M106 287q0 135 50.5 206t162.5 93q100 20 377 20q174 0 245 -25t97 -94v105q0 40 -3 63.5t-15.5 44t-29.5 30t-53.5 16.5t-79.5 8.5t-114 1.5q-112 0 -158 -5.5t-64 -20.5t-21 -52h-353q4 93 36 145t106 92q71 37 177.5 50.5t340.5 13.5q190 0 292 -14.5t167 -49.5 q105 -59 129 -196q6 -29 6 -127v-592h-352v170q-24 -80 -68.5 -120t-129.5 -56.5t-245 -16.5q-105 0 -178.5 5t-131.5 19.5t-92.5 36t-57.5 57.5t-31.5 81.5t-8.5 110.5zM455 303q0 -82 108 -100q37 -6 199 -6q160 0 215 16q30 7 48.5 33t18.5 59q0 45 -25 66.5t-89 30 t-197 8.5q-165 0 -221.5 -22t-56.5 -85z" />
<glyph unicode="b" horiz-adv-x="1632" d="M150 0v1366h352v-586q51 114 149.5 156.5t313.5 42.5q289 0 409 -72q85 -53 117.5 -145.5t32.5 -284.5q0 -188 -19.5 -266t-79.5 -129q-63 -55 -169.5 -80t-278.5 -25t-257 16.5t-133 59.5t-85 137v-190h-352zM510 479q0 -78 6.5 -110t26.5 -58q29 -40 92.5 -53.5 t224.5 -13.5q113 0 163.5 8t82.5 31q37 28 51 68.5t14 119.5q0 57 -3.5 93t-17 65.5t-33 44.5t-58 25t-84.5 13t-121 3q-78 0 -128.5 -3t-91.5 -13.5t-63 -25.5t-37 -43t-19.5 -62.5t-4.5 -88.5z" />
<glyph unicode="c" horiz-adv-x="1550" d="M109 471q0 167 37.5 270t117.5 156q127 82 512 82q159 0 265.5 -11t184.5 -36.5t120.5 -71.5t62.5 -110t21 -160h-359q-4 54 -31.5 80.5t-90 37.5t-185.5 11q-77 0 -127 -6.5t-86 -21t-54 -43.5t-26 -68t-8 -101q0 -87 21 -137.5t67 -75.5q48 -26 227 -26q119 0 180 11.5 t88.5 39t32.5 82.5h361q-1 -79 -14 -136t-44 -102t-78 -73.5t-120.5 -47.5t-167.5 -26.5t-223 -7.5q-228 0 -353.5 22t-193.5 76q-71 53 -104 148t-33 245z" />
<glyph unicode="d" horiz-adv-x="1628" d="M109 463q0 198 31 293.5t110 142.5q136 80 420 80q195 0 299 -39q50 -19 81 -49t74 -100v575h353v-1366h-340v209q-26 -76 -53 -112t-78 -64q-98 -56 -304 -56q-337 0 -462 80q-76 49 -103.5 134.5t-27.5 271.5zM465 471q0 -54 4 -88t17.5 -62t33.5 -42t59 -24t86 -12.5 t123 -2.5q233 0 285 41q31 25 44 69.5t13 122.5q0 58 -3.5 93.5t-18.5 65.5t-35.5 44.5t-63.5 25t-93.5 13t-133.5 2.5q-124 0 -175.5 -8.5t-80.5 -34.5q-34 -28 -47.5 -73t-13.5 -130z" />
<glyph unicode="e" horiz-adv-x="1509" d="M109 465q0 201 47 307t157 152q68 28 165 38.5t288 10.5q257 0 379 -25q84 -17 146.5 -74.5t84.5 -138.5q23 -88 23 -221v-104h-932v-45q0 -102 68 -142q54 -26 256 -26q107 0 159.5 9t75.5 31t27 68h346q-2 -106 -36 -167.5t-110 -96.5q-67 -32 -167.5 -44.5 t-294.5 -12.5q-245 0 -392 24q-82 15 -147 63.5t-98 116.5q-45 98 -45 277zM467 598h590q-1 42 -8.5 69t-25.5 46.5t-53.5 29t-84 13.5t-125.5 4q-115 0 -169 -9.5t-81 -35.5q-43 -37 -43 -101v-16z" />
<glyph unicode="f" horiz-adv-x="1052" d="M96 717v239h191v31q0 143 30 219.5t105 122.5q52 34 130 47t226 13q61 0 193 -9v-231q-126 4 -137 4q-112 0 -153.5 -35.5t-41.5 -132.5v-29h352v-239h-352v-717h-352v717h-191z" />
<glyph unicode="g" horiz-adv-x="1628" d="M109 498q0 182 31 270t112 135q69 40 169 57t269 17q86 0 143.5 -3.5t106 -14.5t77.5 -27t52.5 -45.5t37.5 -66.5t26 -93v229h344v-860q0 -189 -21 -273t-84 -145q-86 -86 -268 -112q-157 -21 -359 -21q-217 0 -327.5 24t-179.5 87q-50 46 -71 99.5t-22 140.5h357 q7 -64 66.5 -85.5t230.5 -21.5q119 0 185.5 15t102.5 49q28 26 37 67t9 141v142q-54 -119 -149 -161t-308 -42q-315 0 -440 90q-71 53 -99 142.5t-28 265.5zM463 498q0 -56 3.5 -90.5t16.5 -63.5t31.5 -43t57 -24t84 -12.5t120.5 -2.5q146 0 203 8t86 33q34 28 45.5 66 t11.5 123q0 71 -5 99.5t-23 55.5q-28 41 -90.5 54.5t-233.5 13.5q-108 0 -158.5 -6t-79.5 -23q-39 -22 -54 -63t-15 -125z" />
<glyph unicode="h" horiz-adv-x="1599" d="M150 0v1366h352v-586q31 80 76.5 122t121.5 59.5t207 17.5q178 0 279.5 -30.5t167.5 -102.5q51 -55 72.5 -132.5t21.5 -201.5v-512h-352v461q0 104 -7.5 136t-37.5 58q-55 52 -220 52q-102 0 -163 -10.5t-100 -40.5t-52.5 -77t-13.5 -126v-453h-352z" />
<glyph unicode="i" horiz-adv-x="653" d="M150 0v956h352v-956h-352zM150 1110v256h352v-256h-352z" />
<glyph unicode="j" horiz-adv-x="735" d="M68 -125q44 -6 57 -6q61 0 84.5 33t23.5 118v936h353v-868q-6 -215 -6 -227q-7 -62 -30 -100.5t-67 -65.5q-93 -55 -272 -55q-38 0 -143 6v229zM233 1110v256h353v-256h-353z" />
<glyph unicode="k" horiz-adv-x="1466" d="M150 0v1366h352v-729h84l334 319h471l-494 -446l567 -510h-475l-391 387h-96v-387h-352z" />
<glyph unicode="l" horiz-adv-x="653" d="M150 0v1366h352v-1366h-352z" />
<glyph unicode="m" horiz-adv-x="2430" d="M150 0v956h342v-194q22 68 50.5 105t80.5 65q92 47 272 47q186 0 297 -54.5t154 -166.5q31 118 126.5 169.5t286.5 51.5q277 0 398.5 -106t121.5 -345v-528h-352v502q0 117 -53.5 158.5t-204.5 41.5q-163 0 -220.5 -50.5t-57.5 -196.5v-455h-353v483q0 72 -9.5 113 t-39.5 66.5t-77.5 34t-131.5 8.5q-157 0 -217.5 -48.5t-60.5 -173.5v-483h-352z" />
<glyph unicode="n" horiz-adv-x="1599" d="M150 0v956h344v-221q35 140 129 192t311 52q165 0 265 -31.5t161 -103.5q48 -56 68 -132.5t20 -203.5v-508h-352v494q0 126 -59 168.5t-232 42.5q-177 0 -240 -57t-63 -216v-432h-352z" />
<glyph unicode="o" horiz-adv-x="1583" d="M109 483q0 210 34 300.5t131 134.5q136 61 512 61q247 0 412 -27q85 -15 148.5 -57t91.5 -102q20 -44 27.5 -106.5t7.5 -182.5q0 -223 -26.5 -309.5t-111.5 -137.5q-49 -30 -100.5 -44t-147.5 -23q-178 -13 -317 -13q-237 0 -359 21t-190 74q-69 52 -90.5 132t-21.5 279z M463 481q0 -58 3.5 -93.5t17.5 -65.5t34 -44.5t61 -24.5t89.5 -12.5t128.5 -2.5q77 0 123.5 2.5t86 12.5t58.5 24t32.5 42.5t17 63t3.5 90.5q0 60 -3 95.5t-17 66t-33.5 45t-61 24.5t-90 12.5t-129.5 2.5q-74 0 -121 -3t-85.5 -13.5t-59 -25.5t-34 -43.5t-17.5 -63.5t-4 -89 z" />
<glyph unicode="p" horiz-adv-x="1632" d="M150 -416v1372h352v-200q15 58 34 95t49 63.5t80.5 40t115.5 19t167 5.5q186 0 297.5 -26.5t179.5 -86.5q54 -46 75.5 -131.5t21.5 -251.5q0 -174 -25 -263t-88 -142q-64 -55 -170.5 -78t-298.5 -23q-212 0 -312 46t-126 155v-594h-352zM504 477q0 -42 2 -70t9 -54 t16.5 -41.5t29.5 -29t43 -20t61 -11.5t79.5 -6t103.5 -1q125 0 176.5 7.5t77.5 29.5q32 28 44.5 72.5t12.5 135.5q0 59 -8 96.5t-26 65t-54 41t-86 19.5t-129 6q-144 0 -203.5 -7.5t-87.5 -27.5q-34 -26 -47.5 -71.5t-13.5 -133.5z" />
<glyph unicode="q" horiz-adv-x="1615" d="M109 467q0 193 28 284t103 142q69 47 176.5 66.5t296.5 19.5q139 0 219 -18t123 -58q23 -22 35 -47.5t40 -112.5v213h336v-1372h-352v580q-25 -59 -58 -92.5t-93 -59.5q-45 -20 -107.5 -27.5t-181.5 -7.5q-199 0 -308 25.5t-171 87.5q-49 49 -67.5 130.5t-18.5 246.5z M465 465q0 -52 4 -85.5t18 -60.5t34.5 -41.5t59.5 -24t87 -12.5t123 -3q131 0 194 10.5t92 38.5q26 25 33.5 62.5t7.5 139.5q0 63 -7.5 100.5t-25.5 65.5t-57.5 40.5t-93 18t-143.5 5.5q-77 0 -125 -3t-87.5 -13.5t-59 -25.5t-33.5 -46.5t-17.5 -68.5t-3.5 -97z" />
<glyph unicode="r" horiz-adv-x="1302" d="M150 0v956h337v-213q29 76 47.5 106.5t49.5 55.5q93 74 297 74q228 0 315 -107q64 -79 64 -276v-61h-330q-2 6 -2 14v12q0 74 -44.5 107.5t-142.5 33.5q-147 0 -204 -84q-20 -31 -27.5 -68.5t-7.5 -109.5v-440h-352z" />
<glyph unicode="s" horiz-adv-x="1536" d="M102 295h373q1 -63 62 -81.5t260 -18.5q156 0 216 19t60 69q0 36 -24.5 54t-77.5 21q-35 4 -183 4h-176q-195 0 -301 27t-152 89t-46 177q0 232 180 285q136 39 473 39q227 0 335.5 -13t172.5 -48q55 -29 80 -81t30 -145h-370q-4 28 -25.5 42t-71.5 20t-149 6 q-163 0 -227 -18t-64 -62t45.5 -58t186.5 -14h247q145 0 234 -13.5t145 -49t77.5 -91.5t21.5 -147q0 -120 -46.5 -190t-144.5 -99q-136 -41 -524 -41q-221 0 -319.5 12.5t-166.5 47.5q-128 65 -131 258z" />
<glyph unicode="t" horiz-adv-x="1312" d="M82 717v239h180v226h361v-226h573v-239h-573v-316q0 -103 31 -137.5t124 -34.5q89 0 119.5 28.5t30.5 113.5v39h268v-76q0 -116 -15 -172.5t-55 -95.5q-51 -47 -133 -68t-219 -21q-186 0 -271.5 17t-144.5 65q-54 44 -74 102t-20 167v389h-182z" />
<glyph unicode="u" horiz-adv-x="1599" d="M150 449v507h352v-493q0 -89 24.5 -132.5t85.5 -61t185 -17.5q173 0 236 57t63 215v432h352v-956h-344v221q-35 -140 -129 -192t-311 -52q-165 0 -264.5 32t-161.5 104q-48 56 -68 132.5t-20 203.5z" />
<glyph unicode="v" horiz-adv-x="1503" d="M47 956h399l306 -690l307 690h395l-469 -956h-465z" />
<glyph unicode="w" horiz-adv-x="2203" d="M68 956h374l222 -712l266 712h338l260 -712l231 712h377l-356 -956h-490l-190 569l-197 -569h-483z" />
<glyph unicode="x" horiz-adv-x="1507" d="M61 0l420 502l-393 454h465l195 -268l206 268h453l-385 -438l424 -518h-451l-247 344l-246 -344h-441z" />
<glyph unicode="y" horiz-adv-x="1470" d="M47 956h391l281 -708l307 708h395l-547 -1155q-31 -65 -55.5 -103t-53 -66t-69.5 -40.5t-89.5 -18t-127.5 -5.5q-57 0 -149 6v238h45q106 0 146.5 20.5t74.5 91.5l33 76h-152z" />
<glyph unicode="z" horiz-adv-x="1351" d="M96 0v240l631 479h-590v237h1100v-266l-614 -452h634v-238h-1161z" />
<glyph unicode="{" horiz-adv-x="890" d="M139 352v264q61 12 87 50t26 116v301q0 140 51 203q38 52 100.5 73t176.5 21q92 0 217 -6v-272h-41q-88 0 -119 -17q-23 -14 -29 -36.5t-6 -98.5v-217q0 -104 -25.5 -155.5t-101.5 -102.5q72 -46 99.5 -102t27.5 -158v-227q0 -96 25.5 -119t130.5 -23q23 0 39 2v-274 q-162 -4 -230 -4q-89 0 -143.5 15.5t-95.5 52.5q-76 65 -76 237v301q0 86 -25.5 125t-87.5 51z" />
<glyph unicode="|" horiz-adv-x="1024" d="M317 -342v1708h392v-1708h-392z" />
<glyph unicode="}" horiz-adv-x="890" d="M92 -152q16 -2 39 -2q57 0 84.5 3.5t46.5 19.5t23 41.5t4 77.5v227q0 102 27.5 158t99.5 102q-76 51 -101.5 102.5t-25.5 155.5v217q0 79 -6.5 102t-32.5 35q-34 15 -117 15h-41v272q129 6 223 6q177 0 250.5 -67t73.5 -230v-301q0 -79 25 -116.5t86 -49.5v-264 q-61 -10 -86 -50t-25 -126v-301q0 -97 -21.5 -156t-68.5 -94q-41 -31 -91.5 -43t-138.5 -12q-71 0 -227 4v274z" />
<glyph unicode="~" horiz-adv-x="1366" d="M186 1243q12 25 15 35q28 62 44 89.5t42 59.5q79 95 205 95q69 0 215 -56q90 -35 119 -43t63 -8q49 0 81 23t70 86l142 -82q-42 -88 -73 -131t-73 -74q-80 -59 -178 -59q-35 0 -84.5 15t-212.5 75q-46 16 -84 16q-52 0 -83.5 -26.5t-71.5 -102.5z" />
<glyph unicode="&#xa1;" horiz-adv-x="657" d="M127 -410l23 807h358l18 -807h-399zM133 582v374h397v-374h-397z" />
<glyph unicode="&#xa2;" d="M307 729q0 204 56.5 313t183.5 150q89 32 336 43v145h186v-145q171 -7 264 -23t144 -45q83 -47 117 -118.5t34 -200.5h-356q-7 66 -53 94t-150 31v-475q113 5 156.5 32.5t52.5 100.5h362q-3 -151 -55.5 -233t-173 -119t-342.5 -41v-158h-186v160q-280 8 -385 61 q-101 51 -146 151t-45 277zM662 735q0 -87 21 -137.5t67 -75.5q36 -19 133 -24v475q-132 -7 -176.5 -55.5t-44.5 -182.5z" />
<glyph unicode="&#xa3;" d="M98 516v229h209q0 244 14.5 331t65.5 153q34 44 76 69.5t123 41.5t193 21t302 5q263 0 394.5 -13.5t199.5 -47.5q82 -43 117 -118.5t35 -207.5l-2 -78h-381v27q0 113 -123 131q-88 10 -219 10q-286 0 -344 -31q-54 -29 -60 -125q-2 -43 -2 -168h568v-229h-557 q-3 -99 -43.5 -142t-161.5 -77h1345v-297h-1687v297q8 -2 20 -2q60 0 95.5 53t35.5 141v27h-213z" />
<glyph unicode="&#xa4;" horiz-adv-x="1527" d="M125 1176l141 141l211 -211q140 90 289 90q145 0 281 -88l210 207l140 -139l-209 -209q51 -78 72.5 -144t21.5 -141q0 -144 -90 -281l211 -211l-139 -141l-209 211q-134 -94 -291 -94q-76 0 -142.5 21t-146.5 71l-209 -207l-139 139l209 209q-90 134 -90 283 q0 147 92 281zM483 680q0 -116 82.5 -198.5t198.5 -82.5q117 0 198.5 83t81.5 200q0 116 -81 198.5t-195 82.5q-120 0 -202.5 -81.5t-82.5 -201.5z" />
<glyph unicode="&#xa5;" d="M113 1366h469l395 -561l391 561h467l-285 -383h174v-231h-346l-141 -193h467v-231h-530v-328h-392v328h-538v231h475l-144 193h-352v231h178z" />
<glyph unicode="&#xa6;" horiz-adv-x="1024" d="M317 313h392v-655h-392v655zM317 625v741h392v-741h-392z" />
<glyph unicode="&#xa7;" d="M186 -53h371v-31q0 -53 27 -72q22 -15 44.5 -21t71.5 -9l265 -7q33 0 164.5 4t144.5 5q60 4 87.5 37.5t27.5 99.5q0 57 -29 85.5t-98 35.5l-797 102q-69 9 -99 19t-63 36q-98 76 -98 252q0 98 31.5 146.5t123.5 87.5q-81 32 -112 89.5t-31 174.5q0 149 41 231.5 t135 120.5q118 47 572 47q395 0 477.5 -9t154.5 -60q45 -33 66 -65t31.5 -87t15.5 -164h-369q2 6 2 13q0 67 -57 90q-30 14 -90 18t-233 4q-249 0 -299 -16q-40 -15 -56 -40.5t-16 -74.5q0 -37 14.5 -59t48.5 -35q32 -12 121 -18l662 -78q68 -7 130.5 -27t98.5 -45 q52 -37 73 -85t21 -130q0 -116 -33 -181.5t-108 -99.5q83 -28 111 -82.5t28 -187.5q0 -175 -45 -257.5t-162 -117.5q-134 -43 -702 -43q-222 0 -337 11t-177 38q-83 34 -116.5 87.5t-33.5 152.5v70v45zM561 502q0 -58 46.5 -86t170.5 -45l561 -72q76 91 76 160 q0 25 -14.5 53.5t-34.5 38.5q-34 21 -125 33l-592 73q-51 -49 -69.5 -82t-18.5 -73z" />
<glyph unicode="&#xa8;" horiz-adv-x="1024" d="M152 1133v213h284v-213h-284zM588 1133v213h284v-213h-284z" />
<glyph unicode="&#xa9;" horiz-adv-x="1951" d="M150 711q0 283 29.5 399.5t117.5 181.5q60 43 128 59.5t210 22.5q129 6 342 6q339 0 483 -16q121 -13 203.5 -80.5t110.5 -175.5q17 -70 22.5 -156.5t5.5 -279.5q0 -186 -6.5 -271t-26.5 -155q-28 -101 -105 -165t-189 -77q-144 -18 -498 -18q-314 0 -473 14 q-114 10 -201.5 72t-118.5 153q-20 63 -27 162.5t-7 323.5zM315 702q0 -185 8.5 -276.5t30.5 -139.5t70 -81q62 -43 169 -55.5t411 -12.5q349 0 432 21q135 37 172 145q28 83 28 393q0 230 -18 322t-72 139q-51 43 -165.5 57.5t-409.5 14.5q-300 0 -410.5 -15t-161.5 -63 q-51 -45 -67.5 -136t-16.5 -313zM457 705q0 154 23 222t89 103q55 31 131 41t246 10q187 0 268.5 -4t122.5 -16q81 -23 114.5 -77.5t33.5 -160.5v-28h-248q-1 23 -3 36t-11.5 24.5t-21 16t-40.5 8.5t-60.5 4.5t-88.5 0.5q-162 0 -207.5 -6t-67.5 -31q-15 -17 -19.5 -50 t-4.5 -120q0 -49 1.5 -75.5t11.5 -51t23 -34.5t44.5 -17.5t66.5 -9t98 -1.5q131 0 173.5 3t68.5 12q25 9 35 30t10 64h250q0 -125 -14.5 -174.5t-57.5 -77.5q-57 -37 -136.5 -46t-348.5 -9q-174 0 -250 10t-127 41q-60 37 -82 113.5t-22 249.5z" />
<glyph unicode="&#xaa;" horiz-adv-x="1032" d="M78 723q0 82 35 126t110 56q66 13 246 13q100 0 138.5 -9t76.5 -41v35q0 44 -12 61t-47 23t-123 6q-75 0 -104.5 -3t-40 -12t-11.5 -32h-242q3 63 24 96t73 58q48 22 117 29.5t225 7.5q122 0 188 -8.5t109 -28.5q72 -37 88 -121q4 -18 4 -76v-356h-242v69 q-38 -51 -89.5 -66t-188.5 -15q-105 0 -166.5 7.5t-101 29.5t-53 57t-13.5 94zM317 733q0 -44 66 -53q14 -4 127 -4q110 0 144 11t34 48q0 33 -37.5 43t-163.5 10q-100 0 -135 -11.5t-35 -43.5z" />
<glyph unicode="&#xab;" horiz-adv-x="1296" d="M68 500l294 506l254 -144l-213 -364l211 -355l-252 -139zM627 500l295 506l252 -144l-213 -364l213 -355l-252 -139z" />
<glyph unicode="&#xac;" horiz-adv-x="1951" d="M532 317v230h887v-547h-245v317h-642z" />
<glyph unicode="&#xad;" horiz-adv-x="708" d="M0 319v349h709v-349h-709z" />
<glyph unicode="&#xae;" horiz-adv-x="1951" d="M150 711q0 283 29.5 399.5t117.5 181.5q60 43 128 59.5t210 22.5q129 6 342 6q339 0 483 -16q121 -13 203.5 -80.5t110.5 -175.5q17 -70 22.5 -156.5t5.5 -279.5q0 -186 -6.5 -271t-26.5 -155q-28 -101 -105 -165t-189 -77q-144 -18 -498 -18q-314 0 -473 14 q-114 10 -201.5 72t-118.5 153q-20 63 -27 162.5t-7 323.5zM315 702q0 -185 8.5 -276.5t30.5 -139.5t70 -81q62 -43 169 -55.5t411 -12.5q349 0 432 21q135 37 172 145q28 83 28 393q0 230 -18 322t-72 139q-51 43 -165.5 57.5t-409.5 14.5q-300 0 -410.5 -15t-161.5 -63 q-51 -45 -67.5 -136t-16.5 -313zM469 301v778h702q195 0 261.5 -52t66.5 -206q0 -103 -36 -151t-130 -70q89 -8 121.5 -44t32.5 -128v-127h-262v102q0 58 -23 74.5t-106 16.5h-369v-193h-258zM727 694h377q86 0 111.5 17.5t25.5 76.5q0 57 -24 74t-105 17h-385v-185z" />
<glyph unicode="&#xaf;" horiz-adv-x="1024" d="M131 1141v198h762v-198h-762z" />
<glyph unicode="&#xb0;" horiz-adv-x="868" d="M123 1065q0 123 92 212t219 89q129 0 220 -89t91 -216t-91 -217t-220 -90q-130 0 -220.5 90t-90.5 221zM279 1063q0 -66 44.5 -111t110.5 -45q64 0 110 45.5t46 108.5t-45.5 107t-110.5 44q-64 0 -109.5 -43.5t-45.5 -105.5z" />
<glyph unicode="&#xb1;" horiz-adv-x="1884" d="M301 0v246h1284v-246h-1284zM301 711v245h518v410h246v-410h520v-245h-520v-410h-246v410h-518z" />
<glyph unicode="&#xb2;" horiz-adv-x="1241" d="M119 547v241q0 129 94 175q33 15 72.5 22.5t124.5 13.5l321 23q89 6 113 21t24 65q0 58 -30 70q-18 8 -54 10t-159 2q-139 0 -181 -5.5t-61 -27.5q-11 -14 -13.5 -30.5t-2.5 -67.5h-248v74q0 79 15.5 119t55.5 65q47 29 140.5 40t302.5 11q186 0 267.5 -8t125.5 -31 q51 -25 72.5 -75.5t21.5 -145.5q0 -99 -21.5 -148.5t-76.5 -78.5q-53 -29 -205 -41l-317 -19q-71 -6 -85 -8t-24 -8q-26 -17 -26 -57v-25h753v-176h-999z" />
<glyph unicode="&#xb3;" horiz-adv-x="1239" d="M109 786q0 35 2 58h245v-39.5t5 -29.5t9.5 -22.5t20.5 -14.5t29.5 -10t46.5 -4.5t62 -2.5h83q67 0 104.5 0.5t71 4t47.5 7.5t24.5 13.5t12.5 20.5t2 30q0 47 -29 62t-124 15h-207v166h197q86 0 115.5 14.5t29.5 57.5q0 50 -46 65t-198 15q-166 0 -200 -12 q-45 -15 -45 -60q0 -25 2 -39h-252q5 114 15.5 153.5t45.5 68.5q46 40 139 53.5t314 13.5q106 0 177 -3.5t128 -13.5t88.5 -25t52.5 -42.5t28 -61.5t7 -85q0 -91 -31 -128.5t-120 -52.5q101 -17 135 -55t34 -135q0 -173 -143 -207q-76 -18 -364 -18q-215 0 -293.5 6.5 t-122.5 28.5q-98 52 -98 208z" />
<glyph unicode="&#xb4;" horiz-adv-x="1024" d="M297 1227l459 243l80 -217l-488 -163z" />
<glyph unicode="&#xb5;" horiz-adv-x="1599" d="M150 -424v1380h352v-419q0 -102 10.5 -146t42.5 -78q35 -38 92 -54.5t152 -16.5t151.5 16.5t91.5 54.5q32 34 43 78.5t11 145.5v419h352v-956h-352v197q-9 -55 -25 -86.5t-49 -59.5q-80 -65 -223 -65q-144 0 -224 65q-32 28 -48 59.5t-25 86.5v-621h-352z" />
<glyph unicode="&#xb6;" horiz-adv-x="1951" d="M117 862q0 206 52 315.5t173 153.5q84 35 324 35h1171v-272h-195v-1530h-354v1530h-186v-1530h-354v776h-41q-167 0 -260.5 12t-151.5 41q-94 47 -136 157.5t-42 311.5z" />
<glyph unicode="&#xb7;" horiz-adv-x="706" d="M150 287v381h407v-381h-407z" />
<glyph unicode="&#xb8;" horiz-adv-x="1024" d="M328 -399l143 323l225 -127l-231 -272z" />
<glyph unicode="&#xb9;" horiz-adv-x="1232" d="M178 1133l367 233h315v-819h-260v612l-301 -201z" />
<glyph unicode="&#xba;" horiz-adv-x="1054" d="M78 840q0 124 23.5 179t88.5 81q93 37 334 37q275 0 365 -50q54 -28 72 -76t18 -159q0 -134 -17.5 -186.5t-74.5 -83.5q-47 -26 -131.5 -36.5t-241.5 -10.5t-235.5 12.5t-124.5 44.5q-46 31 -61 79.5t-15 168.5zM322 838q0 -33 2 -53t10.5 -37t20.5 -25t37.5 -14 t55.5 -7.5t80 -1.5q51 0 80.5 1t55.5 6.5t38 13t20.5 24t10.5 35.5t2 51q0 35 -2 55t-10.5 37.5t-20.5 25.5t-38.5 14t-57.5 7t-84 1q-56 0 -88.5 -3t-57 -10t-35 -23t-15 -37.5t-4.5 -59.5z" />
<glyph unicode="&#xbb;" horiz-adv-x="1296" d="M123 143l213 355l-213 364l252 144l297 -506l-297 -496zM682 143l213 355l-213 364l252 144l295 -506l-295 -496z" />
<glyph unicode="&#xbc;" horiz-adv-x="2934" d="M178 1133l367 233h315v-819h-260v612l-301 -201zM793 0l1134 1366h207l-1135 -1366h-206zM1790 154v295l610 370h307v-483h138v-178h-138v-158h-247v154h-670zM1995 336h465v278z" />
<glyph unicode="&#xbd;" horiz-adv-x="2934" d="M178 1133l367 233h315v-819h-260v612l-301 -201zM793 0l1134 1366h207l-1135 -1366h-206zM1812 0v242q0 127 95 174q59 28 198 37l322 22q89 6 113 21t24 65q0 58 -31 70q-19 8 -54.5 10t-158.5 2q-66 0 -103 -1t-70.5 -5t-47.5 -9.5t-24.5 -19t-12.5 -28.5t-2 -41v-27 h-248v74q0 41 3.5 69.5t14.5 54t26.5 41.5t45 29.5t65 20.5t91 12t118 6.5t151.5 1.5q186 0 268 -8t127 -31q51 -23 72.5 -74t21.5 -147q0 -97 -21.5 -147.5t-76.5 -79.5q-56 -30 -207 -41l-318 -19q-70 -6 -83.5 -8t-22.5 -8q-29 -19 -29 -57q0 -17 2 -25h754v-176h-1002z " />
<glyph unicode="&#xbe;" horiz-adv-x="2940" d="M109 786q0 35 2 58h245v-39.5t5 -29.5t9.5 -22.5t20.5 -14.5t29.5 -10t46.5 -4.5t62 -2.5h83q67 0 104.5 0.5t71 4t47.5 7.5t24.5 13.5t12.5 20.5t2 30q0 47 -29 62t-124 15h-207v166h197q86 0 115.5 14.5t29.5 57.5q0 50 -46 65t-198 15q-166 0 -200 -12 q-45 -15 -45 -60q0 -25 2 -39h-252q5 114 15.5 153.5t45.5 68.5q46 40 139 53.5t314 13.5q106 0 177 -3.5t128 -13.5t88.5 -25t52.5 -42.5t28 -61.5t7 -85q0 -91 -31 -128.5t-120 -52.5q101 -17 135 -55t34 -135q0 -173 -143 -207q-76 -18 -364 -18q-215 0 -293.5 6.5 t-122.5 28.5q-98 52 -98 208zM799 0l1136 1366h207l-1136 -1366h-207zM1798 154v295l610 370h308v-483h135v-178h-135v-158h-248v154h-670zM2003 336h465v278z" />
<glyph unicode="&#xbf;" horiz-adv-x="1609" d="M150 -25q0 148 30 224t103 114q42 21 95 32.5t249 41.5q72 14 95 32t23 62h347q1 -76 -2 -121t-17.5 -85.5t-36 -61t-67.5 -40t-100 -30.5t-146 -24q-140 -22 -183.5 -50.5t-43.5 -99.5q0 -92 108 -110q73 -15 258 -15q84 0 136.5 4.5t91 15t57.5 32t27 51t8 76.5 q0 27 -2 43h350q0 -169 -18.5 -243t-73.5 -128q-47 -44 -110 -64.5t-181 -31.5q-169 -13 -338 -13q-141 0 -237.5 6.5t-173.5 24t-122 44t-75 72t-40.5 102.5t-10.5 140zM721 614v342h397v-342h-397z" />
<glyph unicode="&#xc0;" horiz-adv-x="2099" d="M14 0l768 1366h557l748 -1366h-455l-135 244h-881l-131 -244h-471zM674 1604l84 256l547 -240l-62 -147zM766 528h586l-295 545z" />
<glyph unicode="&#xc1;" horiz-adv-x="2099" d="M14 0l768 1366h557l748 -1366h-455l-135 244h-881l-131 -244h-471zM766 528h586l-295 545zM815 1620l549 240l84 -256l-569 -131z" />
<glyph unicode="&#xc2;" horiz-adv-x="2099" d="M14 0l768 1366h557l748 -1366h-455l-135 244h-881l-131 -244h-471zM561 1602l490 247l487 -247l-72 -129l-415 114l-416 -114zM766 528h586l-295 545z" />
<glyph unicode="&#xc3;" horiz-adv-x="2099" d="M14 0l768 1366h557l748 -1366h-455l-135 244h-881l-131 -244h-471zM569 1569q57 134 121.5 191t159.5 57q58 0 110.5 -14.5t210.5 -73.5q49 -17 89 -17q37 0 61 23t41 75l182 -69q-44 -120 -116.5 -185t-163.5 -65q-80 0 -213 53q-84 34 -118.5 43.5t-66.5 9.5 q-40 0 -66 -22.5t-48 -75.5zM766 528h586l-295 545z" />
<glyph unicode="&#xc4;" horiz-adv-x="2099" d="M14 0l768 1366h557l748 -1366h-455l-135 244h-881l-131 -244h-471zM594 1518v239h356v-239h-356zM766 528h586l-295 545zM1151 1518v239h356v-239h-356z" />
<glyph unicode="&#xc5;" horiz-adv-x="2099" d="M14 0l768 1366h557l748 -1366h-455l-135 244h-881l-131 -244h-471zM745 1663q0 94 83.5 146.5t232.5 52.5q140 0 217.5 -49.5t77.5 -139.5q0 -207 -318 -207q-137 0 -215 52.5t-78 144.5zM766 528h586l-295 545zM911 1661q0 -40 30.5 -57t100.5 -17q146 0 146 78 q0 76 -139 76q-66 0 -102 -21t-36 -59z" />
<glyph unicode="&#xc6;" horiz-adv-x="3026" d="M14 0l920 1366h1964v-309h-1106v-236h1036v-270h-1036v-242h1106v-309h-1491v248h-745l-162 -248h-486zM842 524h565v533h-217z" />
<glyph unicode="&#xc7;" horiz-adv-x="2037" d="M150 715q0 270 38.5 390t145.5 181q92 54 220.5 72t416.5 18q383 0 516 -12t221 -55q162 -80 162 -377v-45h-397q-2 31 -4.5 50.5t-11.5 38t-19 29t-33.5 20t-48.5 13t-70.5 7t-92 4t-120.5 0.5q-252 0 -332.5 -10t-119.5 -44q-37 -34 -48.5 -95t-11.5 -226 q0 -68 1.5 -110t10 -83t18.5 -63t35.5 -42.5t52.5 -29t77.5 -15.5t101 -8t133.5 -1q239 0 304.5 4t107.5 22q45 19 63.5 56t18.5 110h403q-2 -153 -9 -218t-28 -110q-40 -88 -128.5 -132t-247.5 -54q-105 -10 -521 -10q-295 0 -421 18t-209 72q-101 64 -137.5 197t-36.5 438 zM838 -414l143 338l246 -135l-226 -276z" />
<glyph unicode="&#xc8;" horiz-adv-x="1835" d="M178 0v1366h1514v-309h-1104v-236h1040v-270h-1040v-242h1118v-309h-1528zM543 1604l86 256l547 -240l-62 -147z" />
<glyph unicode="&#xc9;" horiz-adv-x="1835" d="M178 0v1366h1514v-309h-1104v-236h1040v-270h-1040v-242h1118v-309h-1528zM707 1620l548 240l84 -256l-569 -131z" />
<glyph unicode="&#xca;" horiz-adv-x="1835" d="M178 0v1366h1514v-309h-1104v-236h1040v-270h-1040v-242h1118v-309h-1528zM446 1602l490 247l487 -247l-71 -129l-416 114l-418 -114z" />
<glyph unicode="&#xcb;" horiz-adv-x="1835" d="M178 0v1366h1514v-309h-1104v-236h1040v-270h-1040v-242h1118v-309h-1528zM479 1518v239h357v-239h-357zM1034 1518v239h357v-239h-357z" />
<glyph unicode="&#xcc;" horiz-adv-x="772" d="M43 1604l84 256l494 -240l-48 -147zM178 0v1366h416v-1366h-416z" />
<glyph unicode="&#xcd;" horiz-adv-x="772" d="M152 1620l493 240l84 -256l-516 -131zM178 0v1366h416v-1366h-416z" />
<glyph unicode="&#xce;" horiz-adv-x="772" d="M-14 1602l399 247l399 -247l-71 -129l-328 114l-328 -114zM176 0v1366h416v-1366h-416z" />
<glyph unicode="&#xcf;" horiz-adv-x="772" d="M23 1518v239h315v-239h-315zM178 0v1366h416v-1366h-416zM434 1518v239h316v-239h-316z" />
<glyph unicode="&#xd0;" horiz-adv-x="2156" d="M14 567v246h164v553h1182q216 0 331 -28t187 -99q57 -55 83.5 -129t37.5 -205q8 -126 8 -221q0 -214 -20 -344q-17 -123 -95.5 -210.5t-191.5 -109.5q-98 -20 -287 -20h-1235v567h-164zM594 326h698q87 0 110 2t58 14q52 16 79 50.5t38.5 100.5t11.5 187q0 75 -4.5 125.5 t-17.5 91.5t-32.5 64t-53.5 38.5t-77 21t-106 5.5h-704v-213h383v-246h-383v-241z" />
<glyph unicode="&#xd1;" horiz-adv-x="2226" d="M178 0v1366h662l827 -1038l-10 1038h393v-1366h-668l-815 1028l11 -1028h-400zM647 1569q57 134 121 191t158 57q58 0 111.5 -14.5t209.5 -73.5q53 -17 88 -17q38 0 63 23t42 75l182 -69q-46 -120 -119 -185t-162 -65q-80 0 -213 53q-86 34 -119.5 43.5t-64.5 9.5 q-40 0 -67.5 -23t-47.5 -75z" />
<glyph unicode="&#xd2;" horiz-adv-x="2164" d="M150 692q0 176 5 243.5t23 135.5q29 109 93 171.5t180 96.5q86 25 207 33t393 8q295 0 416.5 -4t193.5 -16q158 -29 239 -116t103 -251q12 -82 12 -331t-32 -368.5t-119 -191.5q-62 -53 -154.5 -78.5t-241.5 -31.5q-111 -6 -389 -6q-460 0 -573 22q-113 20 -182.5 64.5 t-108.5 120.5q-39 74 -52 173.5t-13 325.5zM569 690q0 -150 14.5 -217t53.5 -100q41 -34 121.5 -44t314.5 -10q186 0 276 6t134.5 22t68.5 50q29 37 39.5 100.5t10.5 200.5v115t-10.5 84t-17.5 63.5t-41 40t-59.5 28t-95 11.5t-125 7h-170.5q-226 0 -314 -10t-128 -40 q-42 -33 -57 -96.5t-15 -210.5zM684 1604l84 256l549 -240l-64 -147z" />
<glyph unicode="&#xd3;" horiz-adv-x="2164" d="M150 692q0 176 5 243.5t23 135.5q29 109 93 171.5t180 96.5q86 25 207 33t393 8q295 0 416.5 -4t193.5 -16q158 -29 239 -116t103 -251q12 -82 12 -331t-32 -368.5t-119 -191.5q-62 -53 -154.5 -78.5t-241.5 -31.5q-111 -6 -389 -6q-460 0 -573 22q-113 20 -182.5 64.5 t-108.5 120.5q-39 74 -52 173.5t-13 325.5zM569 690q0 -150 14.5 -217t53.5 -100q41 -34 121.5 -44t314.5 -10q186 0 276 6t134.5 22t68.5 50q29 37 39.5 100.5t10.5 200.5v115t-10.5 84t-17.5 63.5t-41 40t-59.5 28t-95 11.5t-125 7h-170.5q-226 0 -314 -10t-128 -40 q-42 -33 -57 -96.5t-15 -210.5zM848 1620l547 240l86 -256l-572 -131z" />
<glyph unicode="&#xd4;" horiz-adv-x="2164" d="M150 692q0 176 5 243.5t23 135.5q29 109 93 171.5t180 96.5q86 25 207 33t393 8q295 0 416.5 -4t193.5 -16q158 -29 239 -116t103 -251q12 -82 12 -331t-32 -368.5t-119 -191.5q-62 -53 -154.5 -78.5t-241.5 -31.5q-111 -6 -389 -6q-460 0 -573 22q-113 20 -182.5 64.5 t-108.5 120.5q-39 74 -52 173.5t-13 325.5zM569 690q0 -150 14.5 -217t53.5 -100q41 -34 121.5 -44t314.5 -10q186 0 276 6t134.5 22t68.5 50q29 37 39.5 100.5t10.5 200.5v115t-10.5 84t-17.5 63.5t-41 40t-59.5 28t-95 11.5t-125 7h-170.5q-226 0 -314 -10t-128 -40 q-42 -33 -57 -96.5t-15 -210.5zM594 1602l487 247l490 -247l-74 -129l-416 114l-415 -114z" />
<glyph unicode="&#xd5;" horiz-adv-x="2164" d="M150 692q0 176 5 243.5t23 135.5q29 109 93 171.5t180 96.5q86 25 207 33t393 8q295 0 416.5 -4t193.5 -16q158 -29 239 -116t103 -251q12 -82 12 -331t-32 -368.5t-119 -191.5q-62 -53 -154.5 -78.5t-241.5 -31.5q-111 -6 -389 -6q-460 0 -573 22q-113 20 -182.5 64.5 t-108.5 120.5q-39 74 -52 173.5t-13 325.5zM569 690q0 -150 14.5 -217t53.5 -100q41 -34 121.5 -44t314.5 -10q186 0 276 6t134.5 22t68.5 50q29 37 39.5 100.5t10.5 200.5v115t-10.5 84t-17.5 63.5t-41 40t-59.5 28t-95 11.5t-125 7h-170.5q-226 0 -314 -10t-128 -40 q-42 -33 -57 -96.5t-15 -210.5zM600 1569q59 134 123.5 191t157.5 57q58 0 110.5 -14.5t210.5 -73.5q53 -17 88 -17q38 0 62 22.5t43 75.5l182 -69q-46 -120 -119 -185t-164 -65q-80 0 -213 53q-84 34 -117.5 43.5t-64.5 9.5q-41 0 -68 -22.5t-49 -75.5z" />
<glyph unicode="&#xd6;" horiz-adv-x="2164" d="M150 692q0 176 5 243.5t23 135.5q29 109 93 171.5t180 96.5q86 25 207 33t393 8q295 0 416.5 -4t193.5 -16q158 -29 239 -116t103 -251q12 -82 12 -331t-32 -368.5t-119 -191.5q-62 -53 -154.5 -78.5t-241.5 -31.5q-111 -6 -389 -6q-460 0 -573 22q-113 20 -182.5 64.5 t-108.5 120.5q-39 74 -52 173.5t-13 325.5zM569 690q0 -150 14.5 -217t53.5 -100q41 -34 121.5 -44t314.5 -10q186 0 276 6t134.5 22t68.5 50q29 37 39.5 100.5t10.5 200.5v115t-10.5 84t-17.5 63.5t-41 40t-59.5 28t-95 11.5t-125 7h-170.5q-226 0 -314 -10t-128 -40 q-42 -33 -57 -96.5t-15 -210.5zM625 1518v239h356v-239h-356zM1182 1518v239h356v-239h-356z" />
<glyph unicode="&#xd7;" horiz-adv-x="1884" d="M401 336l367 366l-338 338l174 174l338 -337l367 366l174 -174l-367 -367l338 -337l-174 -175l-338 338l-367 -366z" />
<glyph unicode="&#xd8;" horiz-adv-x="2199" d="M68 -31v236l129 76q-19 77 -25 156t-6 251q0 177 5 245t24 138q29 109 93 171.5t179 96.5q86 23 204.5 32t362.5 9q377 0 492.5 -5t199.5 -27q64 -18 100 -35t72 -49l232 133v-236l-131 -76q21 -69 27 -146.5t6 -281.5q0 -247 -32 -365t-120 -190q-62 -53 -154 -78.5 t-241 -31.5q-111 -6 -387 -6q-291 0 -421.5 6.5t-203.5 25.5q-61 15 -98 33t-74 51zM586 676q0 -74 10 -164l895 518l-25 2l-61 8q-65 7 -324 7q-83 0 -131 -0.5t-104 -4.5t-84 -7t-61.5 -16t-47 -23t-30.5 -35.5t-21 -46t-9.5 -62.5t-6 -78t-0.5 -98zM715 342 q48 -15 115 -20t229 -5q330 0 405 19q41 10 66 24.5t43.5 38.5t27.5 65.5t13 96t4 141.5q0 80 -6 160z" />
<glyph unicode="&#xd9;" horiz-adv-x="2093" d="M170 631v735h416v-594q0 -223 3 -266t23 -88q26 -59 107.5 -81t271.5 -22q236 0 323.5 9t125.5 38q60 45 63 195q2 31 2 182v627h416v-717q0 -186 -8 -266t-33 -139q-86 -202 -356 -242q-80 -14 -486 -14q-257 0 -376.5 6.5t-184.5 25.5q-221 60 -276 252 q-31 105 -31 359zM647 1604l86 256l547 -240l-61 -147z" />
<glyph unicode="&#xda;" horiz-adv-x="2093" d="M170 631v735h416v-594q0 -223 3 -266t23 -88q26 -59 107.5 -81t271.5 -22q236 0 323.5 9t125.5 38q60 45 63 195q2 31 2 182v627h416v-717q0 -186 -8 -266t-33 -139q-86 -202 -356 -242q-80 -14 -486 -14q-257 0 -376.5 6.5t-184.5 25.5q-221 60 -276 252 q-31 105 -31 359zM811 1620l549 240l84 -256l-570 -131z" />
<glyph unicode="&#xdb;" horiz-adv-x="2093" d="M170 631v735h416v-594q0 -223 3 -266t23 -88q26 -59 107.5 -81t271.5 -22q236 0 323.5 9t125.5 38q60 45 63 195q2 31 2 182v627h416v-717q0 -186 -8 -266t-33 -139q-86 -202 -356 -242q-80 -14 -486 -14q-257 0 -376.5 6.5t-184.5 25.5q-221 60 -276 252 q-31 105 -31 359zM557 1602l490 247l487 -247l-72 -129l-415 114l-416 -114z" />
<glyph unicode="&#xdc;" horiz-adv-x="2093" d="M170 631v735h416v-594q0 -223 3 -266t23 -88q26 -59 107.5 -81t271.5 -22q236 0 323.5 9t125.5 38q60 45 63 195q2 31 2 182v627h416v-717q0 -186 -8 -266t-33 -139q-86 -202 -356 -242q-80 -14 -486 -14q-257 0 -376.5 6.5t-184.5 25.5q-221 60 -276 252 q-31 105 -31 359zM590 1518v239h356v-239h-356zM1147 1518v239h356v-239h-356z" />
<glyph unicode="&#xdd;" horiz-adv-x="2023" d="M27 1366h530l461 -565l457 565h520l-770 -893v-473h-418v473zM776 1620l549 240l84 -256l-571 -131z" />
<glyph unicode="&#xde;" horiz-adv-x="1921" d="M178 0v1366h416v-178h661q267 0 361 -47q103 -49 145.5 -144t42.5 -274q0 -201 -50 -303.5t-167 -140.5q-98 -35 -370 -35h-623v-244h-416zM594 575h577q110 0 146 15q37 13 52 42t15 83q0 85 -44 113t-177 28h-569v-281z" />
<glyph unicode="&#xdf;" horiz-adv-x="1630" d="M150 0v956q0 133 30.5 210t104.5 130q51 38 108 55.5t160 26.5q160 13 305 13q311 0 424 -58q70 -35 107.5 -101.5t37.5 -154.5q0 -75 -26 -133t-70 -84q-25 -15 -56 -22t-126 -17q120 -7 166 -19t86 -44q119 -91 119 -320q0 -233 -121 -343.5t-377 -110.5 q-306 0 -393 155q-21 38 -29 87.5t-8 144.5h295q5 -66 33 -94.5t90 -28.5q39 0 72 15t46 40q27 52 27 180q0 135 -49 179.5t-201 44.5h-246v239h168q148 0 198 18.5t50 73.5q0 57 -58.5 81t-195.5 24q-209 0 -272 -51q-29 -23 -38 -62.5t-9 -138.5v-891h-352z" />
<glyph unicode="&#xe0;" horiz-adv-x="1552" d="M106 287q0 135 50.5 206t162.5 93q100 20 377 20q174 0 245 -25t97 -94v105q0 40 -3 63.5t-15.5 44t-29.5 30t-53.5 16.5t-79.5 8.5t-114 1.5q-112 0 -158 -5.5t-64 -20.5t-21 -52h-353q4 93 36 145t106 92q71 37 177.5 50.5t340.5 13.5q190 0 292 -14.5t167 -49.5 q105 -59 129 -196q6 -29 6 -127v-592h-352v170q-24 -80 -68.5 -120t-129.5 -56.5t-245 -16.5q-105 0 -178.5 5t-131.5 19.5t-92.5 36t-57.5 57.5t-31.5 81.5t-8.5 110.5zM432 1253l80 217l457 -243l-51 -137zM455 303q0 -82 108 -100q37 -6 199 -6q160 0 215 16 q30 7 48.5 33t18.5 59q0 45 -25 66.5t-89 30t-197 8.5q-165 0 -221.5 -22t-56.5 -85z" />
<glyph unicode="&#xe1;" horiz-adv-x="1552" d="M106 287q0 135 50.5 206t162.5 93q100 20 377 20q174 0 245 -25t97 -94v105q0 40 -3 63.5t-15.5 44t-29.5 30t-53.5 16.5t-79.5 8.5t-114 1.5q-112 0 -158 -5.5t-64 -20.5t-21 -52h-353q4 93 36 145t106 92q71 37 177.5 50.5t340.5 13.5q190 0 292 -14.5t167 -49.5 q105 -59 129 -196q6 -29 6 -127v-592h-352v170q-24 -80 -68.5 -120t-129.5 -56.5t-245 -16.5q-105 0 -178.5 5t-131.5 19.5t-92.5 36t-57.5 57.5t-31.5 81.5t-8.5 110.5zM455 303q0 -82 108 -100q37 -6 199 -6q160 0 215 16q30 7 48.5 33t18.5 59q0 45 -25 66.5t-89 30 t-197 8.5q-165 0 -221.5 -22t-56.5 -85zM575 1227l457 243l80 -217l-485 -163z" />
<glyph unicode="&#xe2;" horiz-adv-x="1552" d="M106 287q0 135 50.5 206t162.5 93q100 20 377 20q174 0 245 -25t97 -94v105q0 40 -3 63.5t-15.5 44t-29.5 30t-53.5 16.5t-79.5 8.5t-114 1.5q-112 0 -158 -5.5t-64 -20.5t-21 -52h-353q4 93 36 145t106 92q71 37 177.5 50.5t340.5 13.5q190 0 292 -14.5t167 -49.5 q105 -59 129 -196q6 -29 6 -127v-592h-352v170q-24 -80 -68.5 -120t-129.5 -56.5t-245 -16.5q-105 0 -178.5 5t-131.5 19.5t-92.5 36t-57.5 57.5t-31.5 81.5t-8.5 110.5zM365 1210l411 248l410 -248l-56 -120l-354 141l-356 -141zM455 303q0 -82 108 -100q37 -6 199 -6 q160 0 215 16q30 7 48.5 33t18.5 59q0 45 -25 66.5t-89 30t-197 8.5q-165 0 -221.5 -22t-56.5 -85z" />
<glyph unicode="&#xe3;" horiz-adv-x="1552" d="M106 287q0 135 50.5 206t162.5 93q100 20 377 20q174 0 245 -25t97 -94v105q0 40 -3 63.5t-15.5 44t-29.5 30t-53.5 16.5t-79.5 8.5t-114 1.5q-112 0 -158 -5.5t-64 -20.5t-21 -52h-353q4 93 36 145t106 92q71 37 177.5 50.5t340.5 13.5q190 0 292 -14.5t167 -49.5 q105 -59 129 -196q6 -29 6 -127v-592h-352v170q-24 -80 -68.5 -120t-129.5 -56.5t-245 -16.5q-105 0 -178.5 5t-131.5 19.5t-92.5 36t-57.5 57.5t-31.5 81.5t-8.5 110.5zM362 1186q60 127 115 174t144 47q63 0 165 -47q90 -41 138 -41q41 0 71 26t41 70l166 -67 q-25 -73 -55 -115q-34 -51 -88 -82t-111 -31q-53 0 -168 47q-111 45 -151 45q-77 0 -101 -96zM455 303q0 -82 108 -100q37 -6 199 -6q160 0 215 16q30 7 48.5 33t18.5 59q0 45 -25 66.5t-89 30t-197 8.5q-165 0 -221.5 -22t-56.5 -85z" />
<glyph unicode="&#xe4;" horiz-adv-x="1552" d="M106 287q0 135 50.5 206t162.5 93q100 20 377 20q174 0 245 -25t97 -94v105q0 40 -3 63.5t-15.5 44t-29.5 30t-53.5 16.5t-79.5 8.5t-114 1.5q-112 0 -158 -5.5t-64 -20.5t-21 -52h-353q4 93 36 145t106 92q71 37 177.5 50.5t340.5 13.5q190 0 292 -14.5t167 -49.5 q105 -59 129 -196q6 -29 6 -127v-592h-352v170q-24 -80 -68.5 -120t-129.5 -56.5t-245 -16.5q-105 0 -178.5 5t-131.5 19.5t-92.5 36t-57.5 57.5t-31.5 81.5t-8.5 110.5zM416 1133v213h284v-213h-284zM455 303q0 -82 108 -100q37 -6 199 -6q160 0 215 16q30 7 48.5 33 t18.5 59q0 45 -25 66.5t-89 30t-197 8.5q-165 0 -221.5 -22t-56.5 -85zM850 1133v213h285v-213h-285z" />
<glyph unicode="&#xe5;" horiz-adv-x="1552" d="M106 287q0 135 50.5 206t162.5 93q100 20 377 20q174 0 245 -25t97 -94v105q0 40 -3 63.5t-15.5 44t-29.5 30t-53.5 16.5t-79.5 8.5t-114 1.5q-112 0 -158 -5.5t-64 -20.5t-21 -52h-353q4 93 36 145t106 92q71 37 177.5 50.5t340.5 13.5q190 0 292 -14.5t167 -49.5 q105 -59 129 -196q6 -29 6 -127v-592h-352v170q-24 -80 -68.5 -120t-129.5 -56.5t-245 -16.5q-105 0 -178.5 5t-131.5 19.5t-92.5 36t-57.5 57.5t-31.5 81.5t-8.5 110.5zM455 303q0 -82 108 -100q37 -6 199 -6q160 0 215 16q30 7 48.5 33t18.5 59q0 45 -25 66.5t-89 30 t-197 8.5q-165 0 -221.5 -22t-56.5 -85zM494 1262q0 91 76.5 141.5t211.5 50.5q132 0 203.5 -47t71.5 -135q0 -199 -293 -199q-126 0 -198 50.5t-72 138.5zM639 1262q0 -41 30 -58.5t101 -17.5q141 0 141 76q0 79 -139 79q-63 0 -98 -20.5t-35 -58.5z" />
<glyph unicode="&#xe6;" horiz-adv-x="2449" d="M109 293q0 223 147 274q95 35 330 35q108 0 166 -0.5t113.5 -5.5t78.5 -10.5t47 -20.5t34 -30.5t26 -45.5v86q0 81 -18 118t-64 52q-56 15 -289 15q-100 0 -132.5 -14.5t-39.5 -63.5h-358q3 158 112 227q66 43 163.5 56.5t344.5 13.5q152 0 229 -9.5t129 -35.5 q47 -23 69.5 -52.5t31.5 -80.5q10 52 41 86t90 59q47 19 121.5 26t224.5 7q253 0 357 -23t169 -94q51 -57 73 -135.5t22 -208.5v-112h-938v-27q0 -97 43 -137q31 -29 89 -39t205 -10q101 0 137.5 4.5t61.5 19.5q49 28 49 90h353q-3 -187 -146 -266q-66 -35 -166.5 -49.5 t-288.5 -14.5q-330 0 -423 37q-57 23 -85.5 55t-39.5 83q-31 -97 -130.5 -136t-314.5 -39q-295 0 -405 21q-106 19 -162.5 95.5t-56.5 199.5zM457 305q0 -80 88 -98q48 -10 190 -10q189 0 242 16q70 25 70 90q0 62 -47.5 84.5t-176.5 22.5q-215 0 -266 -9q-47 -6 -73.5 -31 t-26.5 -65zM1386 600h588v21q0 79 -60 108t-226 29q-112 0 -163 -7t-79 -26q-34 -22 -47.5 -50.5t-12.5 -74.5z" />
<glyph unicode="&#xe7;" horiz-adv-x="1550" d="M109 471q0 167 37.5 270t117.5 156q127 82 512 82q159 0 265.5 -11t184.5 -36.5t120.5 -71.5t62.5 -110t21 -160h-359q-4 54 -31.5 80.5t-90 37.5t-185.5 11q-77 0 -127 -6.5t-86 -21t-54 -43.5t-26 -68t-8 -101q0 -87 21 -137.5t67 -75.5q48 -26 227 -26q119 0 180 11.5 t88.5 39t32.5 82.5h361q-1 -79 -14 -136t-44 -102t-78 -73.5t-120.5 -47.5t-167.5 -26.5t-223 -7.5q-228 0 -353.5 22t-193.5 76q-71 53 -104 148t-33 245zM604 -399l144 323l225 -127l-232 -272z" />
<glyph unicode="&#xe8;" horiz-adv-x="1509" d="M109 465q0 201 47 307t157 152q68 28 165 38.5t288 10.5q257 0 379 -25q84 -17 146.5 -74.5t84.5 -138.5q23 -88 23 -221v-104h-932v-45q0 -102 68 -142q54 -26 256 -26q107 0 159.5 9t75.5 31t27 68h346q-2 -106 -36 -167.5t-110 -96.5q-67 -32 -167.5 -44.5 t-294.5 -12.5q-245 0 -392 24q-82 15 -147 63.5t-98 116.5q-45 98 -45 277zM424 1253l80 217l457 -243l-52 -137zM467 598h590q-1 42 -8.5 69t-25.5 46.5t-53.5 29t-84 13.5t-125.5 4q-115 0 -169 -9.5t-81 -35.5q-43 -37 -43 -101v-16z" />
<glyph unicode="&#xe9;" horiz-adv-x="1509" d="M109 465q0 201 47 307t157 152q68 28 165 38.5t288 10.5q257 0 379 -25q84 -17 146.5 -74.5t84.5 -138.5q23 -88 23 -221v-104h-932v-45q0 -102 68 -142q54 -26 256 -26q107 0 159.5 9t75.5 31t27 68h346q-2 -106 -36 -167.5t-110 -96.5q-67 -32 -167.5 -44.5 t-294.5 -12.5q-245 0 -392 24q-82 15 -147 63.5t-98 116.5q-45 98 -45 277zM467 598h590q-1 42 -8.5 69t-25.5 46.5t-53.5 29t-84 13.5t-125.5 4q-115 0 -169 -9.5t-81 -35.5q-43 -37 -43 -101v-16zM567 1227l457 243l80 -217l-486 -163z" />
<glyph unicode="&#xea;" horiz-adv-x="1509" d="M109 465q0 201 47 307t157 152q68 28 165 38.5t288 10.5q257 0 379 -25q84 -17 146.5 -74.5t84.5 -138.5q23 -88 23 -221v-104h-932v-45q0 -102 68 -142q54 -26 256 -26q107 0 159.5 9t75.5 31t27 68h346q-2 -106 -36 -167.5t-110 -96.5q-67 -32 -167.5 -44.5 t-294.5 -12.5q-245 0 -392 24q-82 15 -147 63.5t-98 116.5q-45 98 -45 277zM356 1210l412 248l410 -248l-56 -120l-354 141l-356 -141zM467 598h590q-1 42 -8.5 69t-25.5 46.5t-53.5 29t-84 13.5t-125.5 4q-115 0 -169 -9.5t-81 -35.5q-43 -37 -43 -101v-16z" />
<glyph unicode="&#xeb;" horiz-adv-x="1509" d="M109 465q0 201 47 307t157 152q68 28 165 38.5t288 10.5q257 0 379 -25q84 -17 146.5 -74.5t84.5 -138.5q23 -88 23 -221v-104h-932v-45q0 -102 68 -142q54 -26 256 -26q107 0 159.5 9t75.5 31t27 68h346q-2 -106 -36 -167.5t-110 -96.5q-67 -32 -167.5 -44.5 t-294.5 -12.5q-245 0 -392 24q-82 15 -147 63.5t-98 116.5q-45 98 -45 277zM408 1133v213h284v-213h-284zM467 598h590q-1 42 -8.5 69t-25.5 46.5t-53.5 29t-84 13.5t-125.5 4q-115 0 -169 -9.5t-81 -35.5q-43 -37 -43 -101v-16zM842 1133v213h284v-213h-284z" />
<glyph unicode="&#xec;" horiz-adv-x="653" d="M31 1253l80 217l417 -243l-51 -137zM152 0v956h352v-956h-352z" />
<glyph unicode="&#xed;" horiz-adv-x="653" d="M125 1227l418 243l80 -217l-447 -163zM150 0v956h352v-956h-352z" />
<glyph unicode="&#xee;" horiz-adv-x="653" d="M-2 1210l330 248l327 -248l-55 -120l-272 141l-275 -141zM152 0v956h352v-956h-352z" />
<glyph unicode="&#xef;" horiz-adv-x="653" d="M23 1133v213h258v-213h-258zM152 0v956h352v-956h-352zM375 1133v213h258v-213h-258z" />
<glyph unicode="&#xf0;" horiz-adv-x="1583" d="M109 477q0 214 34 304.5t131 133.5q132 60 414 60q94 0 151 -7.5t146 -31.5l-139 168l-133 -51l-105 131l127 53l-166 197h353l86 -88l133 53l112 -131l-127 -56l76 -82q178 -193 232 -319q23 -57 31 -120t8 -197q0 -111 -5.5 -180t-21.5 -120t-41 -80.5t-68 -56.5 q-49 -30 -101 -44t-149 -23q-178 -13 -319 -13q-236 0 -357.5 21t-189.5 74t-90 132.5t-22 272.5zM463 481q0 -58 3.5 -93.5t17.5 -65.5t34 -44.5t61 -24.5t89.5 -12.5t128.5 -2.5q77 0 123.5 2.5t86 12.5t58.5 24t32.5 42.5t17 63t3.5 90.5q0 60 -3 95.5t-17 66t-33.5 45 t-61 24.5t-90 12.5t-129.5 2.5q-74 0 -121 -3t-85.5 -13.5t-59 -25.5t-34 -43.5t-17.5 -63.5t-4 -89z" />
<glyph unicode="&#xf1;" horiz-adv-x="1599" d="M150 0v956h344v-221q35 140 129 192t311 52q165 0 265 -31.5t161 -103.5q48 -56 68 -132.5t20 -203.5v-508h-352v494q0 126 -59 168.5t-232 42.5q-177 0 -240 -57t-63 -216v-432h-352zM365 1186q60 128 114.5 174.5t143.5 46.5q66 0 168 -47q90 -41 135 -41q41 0 72.5 26 t41.5 70l166 -67q-29 -73 -55 -115q-34 -51 -88.5 -82t-110.5 -31q-53 0 -168 47q-111 45 -153 45q-77 0 -101 -96z" />
<glyph unicode="&#xf2;" horiz-adv-x="1583" d="M109 483q0 210 34 300.5t131 134.5q136 61 512 61q247 0 412 -27q85 -15 148.5 -57t91.5 -102q20 -44 27.5 -106.5t7.5 -182.5q0 -223 -26.5 -309.5t-111.5 -137.5q-49 -30 -100.5 -44t-147.5 -23q-178 -13 -317 -13q-237 0 -359 21t-190 74q-69 52 -90.5 132t-21.5 279z M461 1253l80 217l456 -243l-51 -137zM463 481q0 -58 3.5 -93.5t17.5 -65.5t34 -44.5t61 -24.5t89.5 -12.5t128.5 -2.5q77 0 123.5 2.5t86 12.5t58.5 24t32.5 42.5t17 63t3.5 90.5q0 60 -3 95.5t-17 66t-33.5 45t-61 24.5t-90 12.5t-129.5 2.5q-74 0 -121 -3t-85.5 -13.5 t-59 -25.5t-34 -43.5t-17.5 -63.5t-4 -89z" />
<glyph unicode="&#xf3;" horiz-adv-x="1583" d="M109 483q0 210 34 300.5t131 134.5q136 61 512 61q247 0 412 -27q85 -15 148.5 -57t91.5 -102q20 -44 27.5 -106.5t7.5 -182.5q0 -223 -26.5 -309.5t-111.5 -137.5q-49 -30 -100.5 -44t-147.5 -23q-178 -13 -317 -13q-237 0 -359 21t-190 74q-69 52 -90.5 132t-21.5 279z M463 481q0 -58 3.5 -93.5t17.5 -65.5t34 -44.5t61 -24.5t89.5 -12.5t128.5 -2.5q77 0 123.5 2.5t86 12.5t58.5 24t32.5 42.5t17 63t3.5 90.5q0 60 -3 95.5t-17 66t-33.5 45t-61 24.5t-90 12.5t-129.5 2.5q-74 0 -121 -3t-85.5 -13.5t-59 -25.5t-34 -43.5t-17.5 -63.5t-4 -89 zM590 1227l459 243l79 -217l-487 -163z" />
<glyph unicode="&#xf4;" horiz-adv-x="1583" d="M109 483q0 210 34 300.5t131 134.5q136 61 512 61q247 0 412 -27q85 -15 148.5 -57t91.5 -102q20 -44 27.5 -106.5t7.5 -182.5q0 -223 -26.5 -309.5t-111.5 -137.5q-49 -30 -100.5 -44t-147.5 -23q-178 -13 -317 -13q-237 0 -359 21t-190 74q-69 52 -90.5 132t-21.5 279z M379 1210l412 248l411 -248l-57 -120l-354 141l-355 -141zM463 481q0 -58 3.5 -93.5t17.5 -65.5t34 -44.5t61 -24.5t89.5 -12.5t128.5 -2.5q77 0 123.5 2.5t86 12.5t58.5 24t32.5 42.5t17 63t3.5 90.5q0 60 -3 95.5t-17 66t-33.5 45t-61 24.5t-90 12.5t-129.5 2.5 q-74 0 -121 -3t-85.5 -13.5t-59 -25.5t-34 -43.5t-17.5 -63.5t-4 -89z" />
<glyph unicode="&#xf5;" horiz-adv-x="1583" d="M109 483q0 210 34 300.5t131 134.5q136 61 512 61q247 0 412 -27q85 -15 148.5 -57t91.5 -102q20 -44 27.5 -106.5t7.5 -182.5q0 -223 -26.5 -309.5t-111.5 -137.5q-49 -30 -100.5 -44t-147.5 -23q-178 -13 -317 -13q-237 0 -359 21t-190 74q-69 52 -90.5 132t-21.5 279z M377 1186q60 128 114.5 174.5t143.5 46.5q67 0 166 -47q90 -41 137 -41q42 0 73.5 26t41.5 70l166 -67q-27 -68 -56 -115q-34 -51 -88 -82t-110 -31q-52 0 -170 47q-108 45 -152 45q-76 0 -100 -96zM463 481q0 -58 3.5 -93.5t17.5 -65.5t34 -44.5t61 -24.5t89.5 -12.5 t128.5 -2.5q77 0 123.5 2.5t86 12.5t58.5 24t32.5 42.5t17 63t3.5 90.5q0 60 -3 95.5t-17 66t-33.5 45t-61 24.5t-90 12.5t-129.5 2.5q-74 0 -121 -3t-85.5 -13.5t-59 -25.5t-34 -43.5t-17.5 -63.5t-4 -89z" />
<glyph unicode="&#xf6;" horiz-adv-x="1583" d="M109 483q0 210 34 300.5t131 134.5q136 61 512 61q247 0 412 -27q85 -15 148.5 -57t91.5 -102q20 -44 27.5 -106.5t7.5 -182.5q0 -223 -26.5 -309.5t-111.5 -137.5q-49 -30 -100.5 -44t-147.5 -23q-178 -13 -317 -13q-237 0 -359 21t-190 74q-69 52 -90.5 132t-21.5 279z M430 1133v213h285v-213h-285zM463 481q0 -58 3.5 -93.5t17.5 -65.5t34 -44.5t61 -24.5t89.5 -12.5t128.5 -2.5q77 0 123.5 2.5t86 12.5t58.5 24t32.5 42.5t17 63t3.5 90.5q0 60 -3 95.5t-17 66t-33.5 45t-61 24.5t-90 12.5t-129.5 2.5q-74 0 -121 -3t-85.5 -13.5t-59 -25.5 t-34 -43.5t-17.5 -63.5t-4 -89zM866 1133v213h285v-213h-285z" />
<glyph unicode="&#xf7;" horiz-adv-x="1884" d="M301 580v245h1284v-245h-1284zM766 127v330h352v-330h-352zM766 946v330h352v-330h-352z" />
<glyph unicode="&#xf8;" horiz-adv-x="1619" d="M55 -37v170l99 55q-16 76 -20.5 123.5t-4.5 141.5q0 209 21.5 293t87.5 137q63 51 195.5 73.5t367.5 22.5q251 0 413 -27q90 -18 170 -69l183 106v-170l-97 -57q23 -101 23 -242q0 -159 -11.5 -244.5t-41 -134.5t-88.5 -84q-49 -30 -101 -44t-147 -23q-178 -13 -320 -13 q-235 0 -352.5 20t-189.5 73zM481 426q0 -20 8 -47l562 315q-42 15 -91 20t-163 5q-59 0 -97 -1.5t-74 -7t-56.5 -13t-39 -24.5t-26.5 -36t-14 -52.5t-7.5 -68.5t-1.5 -90zM573 258q84 -20 224 -20q133 0 190.5 7t87.5 29q35 25 49.5 70.5t14.5 134.5q0 61 -6 94z" />
<glyph unicode="&#xf9;" horiz-adv-x="1599" d="M150 449v507h352v-493q0 -89 24.5 -132.5t85.5 -61t185 -17.5q173 0 236 57t63 215v432h352v-956h-344v221q-35 -140 -129 -192t-311 -52q-165 0 -264.5 32t-161.5 104q-48 56 -68 132.5t-20 203.5zM463 1253l80 217l456 -243l-51 -137z" />
<glyph unicode="&#xfa;" horiz-adv-x="1599" d="M150 449v507h352v-493q0 -89 24.5 -132.5t85.5 -61t185 -17.5q173 0 236 57t63 215v432h352v-956h-344v221q-35 -140 -129 -192t-311 -52q-165 0 -264.5 32t-161.5 104q-48 56 -68 132.5t-20 203.5zM598 1227l459 243l80 -217l-488 -163z" />
<glyph unicode="&#xfb;" horiz-adv-x="1599" d="M150 449v507h352v-493q0 -89 24.5 -132.5t85.5 -61t185 -17.5q173 0 236 57t63 215v432h352v-956h-344v221q-35 -140 -129 -192t-311 -52q-165 0 -264.5 32t-161.5 104q-48 56 -68 132.5t-20 203.5zM389 1210l410 248l411 -248l-57 -120l-354 141l-355 -141z" />
<glyph unicode="&#xfc;" horiz-adv-x="1599" d="M150 449v507h352v-493q0 -89 24.5 -132.5t85.5 -61t185 -17.5q173 0 236 57t63 215v432h352v-956h-344v221q-35 -140 -129 -192t-311 -52q-165 0 -264.5 32t-161.5 104q-48 56 -68 132.5t-20 203.5zM438 1133v213h285v-213h-285zM874 1133v213h285v-213h-285z" />
<glyph unicode="&#xfd;" horiz-adv-x="1470" d="M47 956h391l281 -708l307 708h395l-547 -1155q-31 -65 -55.5 -103t-53 -66t-69.5 -40.5t-89.5 -18t-127.5 -5.5q-57 0 -149 6v238h45q106 0 146.5 20.5t74.5 91.5l33 76h-152zM526 1227l459 243l80 -217l-487 -163z" />
<glyph unicode="&#xfe;" horiz-adv-x="1632" d="M150 -416v1782h352v-610q15 58 34 95t49 63.5t80.5 40t115.5 19t167 5.5q186 0 297.5 -26.5t179.5 -86.5q54 -46 75.5 -131.5t21.5 -251.5q0 -174 -25 -263t-88 -142q-64 -55 -170.5 -78t-298.5 -23q-212 0 -312 46t-126 155v-594h-352zM504 477q0 -42 2 -70t9 -54 t16.5 -41.5t29.5 -29t43 -20t61 -11.5t79.5 -6t103.5 -1q125 0 176.5 7.5t77.5 29.5q32 28 44.5 72.5t12.5 135.5q0 59 -8 96.5t-26 65t-54 41t-86 19.5t-129 6q-144 0 -203.5 -7.5t-87.5 -27.5q-34 -26 -47.5 -71.5t-13.5 -133.5z" />
<glyph unicode="&#xff;" horiz-adv-x="1470" d="M47 956h391l281 -708l307 708h395l-547 -1155q-31 -65 -55.5 -103t-53 -66t-69.5 -40.5t-89.5 -18t-127.5 -5.5q-57 0 -149 6v238h45q106 0 146.5 20.5t74.5 91.5l33 76h-152zM375 1133v213h284v-213h-284zM809 1133v213h285v-213h-285z" />
<glyph unicode="&#x152;" horiz-adv-x="3198" d="M150 655q0 269 26.5 394t99.5 198q59 59 141.5 86t217.5 31q122 4 307 4q339 0 455 -29q39 -9 78.5 -32.5t64.5 -53.5q24 -27 41 -77v190h1487v-309h-1104v-236h1034v-270h-1034v-242h1104v-309h-1487v170q-62 -141 -244 -164q-95 -12 -419.5 -6.5t-407.5 20.5 q-245 46 -317 234q-43 103 -43 401zM553 666q0 -123 13 -187t44.5 -96.5t94.5 -48.5q97 -23 507 -23q153 0 228 21.5t104 73.5q22 37 29.5 99t7.5 206q0 138 -18.5 200t-67.5 90q-68 39 -420 39q-217 0 -280 -2.5t-103 -13.5q-61 -16 -89 -49t-39 -101t-11 -208z" />
<glyph unicode="&#x153;" horiz-adv-x="2500" d="M109 514q0 123 10 184.5t39 110.5q35 60 104.5 100t159.5 52q126 18 377 18q171 0 264 -14t142 -47.5t73 -98.5q35 91 134.5 125.5t326.5 34.5q220 0 328 -15t171 -55q62 -38 96.5 -94.5t47.5 -142.5q8 -45 8 -154v-115h-938v-18v-10q0 -105 66 -152q52 -35 258 -35 q111 0 163 8.5t74.5 30.5t28.5 70h348q0 -77 -21.5 -128.5t-70.5 -92.5q-87 -76 -248 -90q-80 -9 -250 -9q-188 0 -268.5 8t-134.5 31q-49 22 -76.5 50t-42.5 73q-22 -51 -53 -82t-82 -51q-42 -17 -107 -23t-205 -6q-257 0 -365.5 11t-174.5 43q-136 65 -166 205 q-16 85 -16 278zM453 479q0 -96 14.5 -141.5t54.5 -71.5q29 -20 86 -27.5t187 -7.5t185.5 8.5t82.5 32.5q29 26 42 73.5t13 131.5q0 94 -19.5 142t-66.5 73q-53 27 -237 27q-128 0 -188 -8.5t-91 -30.5q-36 -26 -49.5 -69t-13.5 -132zM1446 590h594v12q0 97 -57.5 128.5 t-231.5 31.5q-182 0 -243.5 -34.5t-61.5 -137.5z" />
<glyph unicode="&#x178;" horiz-adv-x="2023" d="M27 1366h530l461 -565l457 565h520l-770 -893v-473h-418v473zM555 1518v239h356v-239h-356zM1110 1518v239h356v-239h-356z" />
<glyph unicode="&#x2c6;" horiz-adv-x="1024" d="M100 1210l412 248l410 -248l-56 -120l-354 141l-356 -141z" />
<glyph unicode="&#x2dc;" horiz-adv-x="1024" d="M92 1186q60 128 114.5 174.5t143.5 46.5q67 0 166 -47q90 -41 137 -41q42 0 73.5 26t41.5 70l166 -67q-29 -73 -55 -115q-34 -51 -88.5 -82t-110.5 -31q-52 0 -170 47q-108 45 -152 45q-76 0 -100 -96z" />
<glyph unicode="&#x2000;" horiz-adv-x="931" />
<glyph unicode="&#x2001;" horiz-adv-x="1862" />
<glyph unicode="&#x2002;" horiz-adv-x="931" />
<glyph unicode="&#x2003;" horiz-adv-x="1862" />
<glyph unicode="&#x2004;" horiz-adv-x="620" />
<glyph unicode="&#x2005;" horiz-adv-x="465" />
<glyph unicode="&#x2006;" horiz-adv-x="310" />
<glyph unicode="&#x2007;" horiz-adv-x="310" />
<glyph unicode="&#x2008;" horiz-adv-x="232" />
<glyph unicode="&#x2009;" horiz-adv-x="372" />
<glyph unicode="&#x200a;" horiz-adv-x="103" />
<glyph unicode="&#x2010;" horiz-adv-x="708" d="M0 319v349h709v-349h-709z" />
<glyph unicode="&#x2011;" horiz-adv-x="708" d="M0 319v349h709v-349h-709z" />
<glyph unicode="&#x2012;" horiz-adv-x="708" d="M0 319v349h709v-349h-709z" />
<glyph unicode="&#x2013;" d="M319 319v349h1307v-349h-1307z" />
<glyph unicode="&#x2014;" horiz-adv-x="2125" d="M0 319v349h2126v-349h-2126z" />
<glyph unicode="&#x2018;" horiz-adv-x="636" d="M111 633v350q0 135 11 190.5t48 102.5q36 49 101.5 69.5t181.5 20.5h112v-209q-100 -2 -134 -30.5t-34 -112.5v-15h111v-366h-397z" />
<glyph unicode="&#x2019;" horiz-adv-x="645" d="M70 633v209q102 2 136 30.5t34 112.5v14h-111v367h397v-350q0 -135 -11 -190.5t-48 -102.5q-36 -49 -101.5 -69.5t-181.5 -20.5h-114z" />
<glyph unicode="&#x201a;" horiz-adv-x="645" d="M70 -158q101 2 135.5 30.5t34.5 113.5v14h-111v367h397v-351q0 -135 -11 -190t-48 -102q-37 -49 -102 -70t-181 -21h-114v209z" />
<glyph unicode="&#x201c;" horiz-adv-x="1196" d="M111 633v350q0 135 11 190.5t48 102.5q36 49 101.5 69.5t181.5 20.5h112v-209q-100 -2 -134 -30.5t-34 -112.5v-15h111v-366h-397zM668 633v350q0 135 11 190.5t48 102.5q36 49 101.5 69.5t181.5 20.5h114v-209q-102 -2 -136 -30.5t-34 -112.5v-15h111v-366h-397z" />
<glyph unicode="&#x201d;" horiz-adv-x="1204" d="M70 633v209q102 2 136 30.5t34 112.5v14h-111v367h397v-350q0 -135 -11 -190.5t-48 -102.5q-36 -49 -101.5 -69.5t-181.5 -20.5h-114zM629 633v209q100 2 134 30.5t34 112.5v14h-111v367h397v-350q0 -135 -11 -190.5t-48 -102.5q-36 -49 -101.5 -69.5t-181.5 -20.5h-112z " />
<glyph unicode="&#x201e;" horiz-adv-x="1204" d="M70 -158q101 2 135.5 30.5t34.5 113.5v14h-111v367h397v-351q0 -135 -11 -190t-48 -102q-37 -49 -102 -70t-181 -21h-114v209zM629 -158q100 2 134 30.5t34 113.5v14h-111v367h397v-351q0 -135 -11 -190t-48 -102q-37 -49 -102 -70t-181 -21h-112v209z" />
<glyph unicode="&#x2022;" horiz-adv-x="1366" d="M401 694q0 120 83.5 202.5t203.5 82.5q115 0 198 -83.5t83 -199.5q0 -118 -83 -201t-200 -83q-118 0 -201.5 82.5t-83.5 199.5z" />
<glyph unicode="&#x2026;" horiz-adv-x="2121" d="M150 0v381h407v-381h-407zM856 0v381h408v-381h-408zM1565 0v381h407v-381h-407z" />
<glyph unicode="&#x202f;" horiz-adv-x="372" />
<glyph unicode="&#x2039;" horiz-adv-x="739" d="M68 500l294 506l254 -144l-213 -364l211 -355l-252 -139z" />
<glyph unicode="&#x203a;" horiz-adv-x="739" d="M123 143l213 355l-213 364l252 144l297 -506l-297 -496z" />
<glyph unicode="&#x205f;" horiz-adv-x="465" />
<glyph unicode="&#x20ac;" d="M18 442l84 205h70v62h-154l84 204h76q11 223 115 324q57 57 142 87t222 42q115 10 404 10q386 0 527 -6t270 -29l-138 -327q-120 23 -195.5 29t-234.5 6l-176 -2q-255 -1 -307.5 -3.5t-87.5 -11.5q-54 -15 -82.5 -42.5t-38.5 -76.5h897l-86 -204h-825v-11v-45v-6h800 l-86 -205h-692q35 -96 135 -108q43 -5 221.5 -10t309.5 -5q219 0 409 25v-344q-125 -7 -207 -8.5t-395 -1.5q-256 0 -342 3t-182 15q-183 23 -270.5 125t-104.5 309h-162z" />
<glyph unicode="&#x2122;" horiz-adv-x="2736" d="M68 1163v203h997v-203h-367v-575h-264v575h-366zM1192 588v778h407l297 -502l295 502h406v-778h-258l12 571l-354 -571h-207l-348 571l6 -571h-256z" />
<glyph unicode="&#xe000;" horiz-adv-x="955" d="M0 0v955h955v-955h-955z" />
</font>
</defs>
</svg>
